<svg xmlns="http://www.w3.org/2000/svg" viewBox="0 0 53.85 52.54"><defs><style>.cls-1{fill:#fff;}</style></defs><g id="Capa_2" data-name="Capa 2"><g id="Capa_1-2" data-name="Capa 1"><g id="W0yi8s.tif"><path class="cls-1" d="M53.85,29.05a35.57,35.57,0,0,1-1.64,7.18,26.76,26.76,0,0,1-16,16c-2,.74-2.59.3-2.6-1.74V44.72c0-2.06-.12-4.08-1.68-5.8,1.59-.39,3.1-.54,4.52-1,4.73-1.66,7-5.17,7.51-10,.35-3.34,0-6.55-2.34-9.21a.9.9,0,0,1-.11-1,9,9,0,0,0-.06-5.29c-.41-1.43-.67-1.62-2.11-1.25a14.61,14.61,0,0,0-4.46,2,3.12,3.12,0,0,1-2.66.45,23.55,23.55,0,0,0-11,.08,2.27,2.27,0,0,1-2-.34,16.39,16.39,0,0,0-4.44-2c-1.82-.56-2.15-.36-2.58,1.43a9.05,9.05,0,0,0,.06,4.95,1,1,0,0,1-.16,1.08,12.34,12.34,0,0,0,8.32,19.85c.43.06.85.15,1.39.25a7,7,0,0,0-1.48,3.18c-.06.39-.35.53-.65.62-2.89.86-5.15.73-7-2.13a7,7,0,0,0-2.81-2.68,3.37,3.37,0,0,0-.9-.33c-.61-.12-1.45-.39-1.75.25s.47,1,1,1.32a5.54,5.54,0,0,1,2.46,3C11.9,46,15.18,46.75,19,46.39c1-.09,1.29,0,1.23,1s0,2.16,0,3.23c0,1.73-.73,2.28-2.32,1.69C8.5,48.75,2.56,42,.55,32.19A26.76,26.76,0,0,1,21.09.66C36.3-2.82,51.68,7.87,53.61,23.24c.06.5-.1,1,.24,1.5Z"/></g></g></g></svg>