<svg xmlns="http://www.w3.org/2000/svg" viewBox="0 0 43.08 41.2"><defs><style>.cls-1{fill:#fff;}</style></defs><g id="Capa_2" data-name="Capa 2"><g id="Capa_1-2" data-name="Capa 1"><g id="RrActh.tif"><path class="cls-1" d="M0,4C1.1,1,3.08-.34,6.05.08a4.67,4.67,0,0,1,4.29,5.13A4.76,4.76,0,0,1,5.63,9.59c-2.93.17-4.56-1-5.63-4Z"/><path class="cls-1" d="M24.12,17c1.7-2.18,3.69-3.76,6.42-4.11,6.31-.83,11,2.33,12.14,8.42a20.59,20.59,0,0,1,.38,4c0,5,0,10,0,15,0,.66-.16.87-.84.86q-3.78-.06-7.56,0c-.68,0-.84-.21-.84-.86,0-4.63,0-9.25,0-13.87A10,10,0,0,0,33.34,23a4.5,4.5,0,0,0-7.05-2,5.26,5.26,0,0,0-2.18,4.36c0,4.94,0,9.88,0,14.82,0,.8-.12,1.1-1,1.08-2.49-.08-5-.05-7.46,0-.59,0-.76-.15-.76-.74q0-13.15,0-26.31c0-.6.18-.75.76-.74,2.55,0,5.1,0,7.65,0,.71,0,.85.25.82.88C24.08,15.18,24.12,16.09,24.12,17Z"/><path class="cls-1" d="M9.77,27.39c0,4.31,0,8.61,0,12.91,0,.73-.21.9-.91.89-2.48,0-5,0-7.46,0-.61,0-.88-.09-.88-.81q0-13.09,0-26.19c0-.64.2-.8.81-.79q3.83,0,7.65,0c.65,0,.79.21.78.82C9.76,18.6,9.77,23,9.77,27.39Z"/></g></g></g></svg>