<svg xmlns="http://www.w3.org/2000/svg" viewBox="0 0 45.05 37.15"><defs><style>.cls-1{fill:#fff;}</style></defs><g id="Capa_2" data-name="Capa 2"><g id="Capa_1-2" data-name="Capa 1"><g id="m5qZC9.tif"><path class="cls-1" d="M40.1,5.8a18.22,18.22,0,0,0,4.95-1.26,13.32,13.32,0,0,1-3.74,4.14,1.63,1.63,0,0,0-.68,1.45c-.34,10.95-5,19.43-14.94,24.28-8.37,4.08-16.86,3.5-25-1-.14-.08-.26-.18-.66-.46A19.29,19.29,0,0,0,13.52,29c-4.22-.47-7.07-2.49-8.63-6.43a10.86,10.86,0,0,0,4-.25c-4.52-1.45-7-4.42-7.31-9.22A11.29,11.29,0,0,0,5.7,14.17,9.84,9.84,0,0,1,1.9,8.44a9.37,9.37,0,0,1,1-6.65L4.24,3.21a26.6,26.6,0,0,0,17.22,8.26c.89.08.65-.44.6-.88A9.24,9.24,0,0,1,29,.32a9,9,0,0,1,8.52,2.07,1.51,1.51,0,0,0,1.56.38A22.62,22.62,0,0,0,44,.76,9.8,9.8,0,0,1,40.1,5.8Z"/></g></g></g></svg>