<svg xmlns="http://www.w3.org/2000/svg" viewBox="0 0 63.64 77.62"><defs><style>.cls-1{fill:#0b202b;}</style></defs><g id="Capa_2" data-name="Capa 2"><g id="Capa_1-2" data-name="Capa 1"><g id="Q37tQT.tif"><path class="cls-1" d="M14.05,49.67v9l8.51,2.8V72.84l9.58,4.78V0l-9.6,4.8V16.49l-8.48,2.79v9.07l8.41.92V34L9,33.31V11.5L0,16V34.25c7.54.12,15,1,22.51.13V51.16ZM41.84,34.36c7.33.93,14.56,0,21.8-.08v-.16l-8.27-.82V11.55L41.86,15.2v1.34l8.34,2.74v9l-8.36-1.45Zm0,9.53v4.77l8.37.93v9L41.87,61.4v1.33l13.44,3.64V44.63ZM0,43.73V61.88l9,4.47V44.63Z"/><path class="cls-1" d="M14.05,49.67l8.48,1.49V34.38c-7.51.91-15,0-22.51-.13V16L9,11.5V33.31L22.47,34V29.27l-8.41-.92V19.28l8.48-2.79V4.8L32.14,0V77.62l-9.58-4.78V61.45l-8.51-2.8Z"/><path class="cls-1" d="M41.84,34.36V26.78l8.36,1.45V19.28l-8.34-2.74V15.2l13.51-3.65V33.3l8.27.82v.16C56.4,34.4,49.17,35.29,41.84,34.36Z"/><path class="cls-1" d="M41.86,43.89l13.45.74V66.37L41.87,62.73V61.4l8.36-2.76v-9l-8.37-.93Z"/><path class="cls-1" d="M0,43.73l9,.9V66.35L0,61.88Z"/></g></g></g></svg>