<svg xmlns="http://www.w3.org/2000/svg" viewBox="0 0 71.77 72.88"><defs><style>.cls-1{fill:#0b202b;}</style></defs><g id="Capa_2" data-name="Capa 2"><g id="Capa_1-2" data-name="Capa 1"><g id="aaxnyJ"><path class="cls-1" d="M33.72,0H37a1.55,1.55,0,0,0,.23.06c1.47.17,3,.26,4.42.52A35.29,35.29,0,0,1,62.5,12.21a35.51,35.51,0,0,1,8.87,29.58,34.78,34.78,0,0,1-9.08,19.14A35.68,35.68,0,0,1,37.91,72.77a34.6,34.6,0,0,1-17.62-3.19C9.79,64.61,3.12,56.39,0,45.22a1.32,1.32,0,0,1,0-.56,1.75,1.75,0,0,1,1.85-1.44H16.3a1.66,1.66,0,0,1,1.6,1c.19.38.38.77.58,1.15a19,19,0,0,0,28.13,6.27,18.45,18.45,0,0,0,7.64-16.79,17.82,17.82,0,0,0-4.68-11.07,18.35,18.35,0,0,0-17-6.28C25.87,18.44,21,22.19,18,28.3a1.87,1.87,0,0,1-1.84,1.16c-3.5,0-7,0-10.48,0H1.78a1.7,1.7,0,0,1-1.73-2A36,36,0,0,1,11.48,9,35.82,35.82,0,0,1,31.41.23C32.18.14,33,.08,33.72,0Z"/><path class="cls-1" d="M35.34,45.06A8.63,8.63,0,1,1,44,36.5,8.6,8.6,0,0,1,35.34,45.06Z"/></g></g></g></svg>