<svg xmlns="http://www.w3.org/2000/svg" viewBox="0 0 66.98 75.48"><defs><style>.cls-1{fill:#0b202b;}</style></defs><g id="Capa_2" data-name="Capa 2"><g id="Capa_1-2" data-name="Capa 1"><path class="cls-1" d="M11.9,26.15h0L22.76,24c0,1.45,1,3,2.23,3.15l8.91,1.41c3.55-.58,11.17-1.78,14.75-2.21,5.91-.7,12.26-.94,18.33-1.66l0-8.88L57.4,11.36h0s-4.73.87-6.12,1.17v-4L33.31,0V14.58l.6.18-.6-.18V0C33,0,11.53,10,1.13,14.94c-.44.21-1,.74-1,1.13-.09,2.69,0,5.39,0,8.24ZM58.35,12.87,66,16.44l0,7-7.81-2ZM34.28,1.53l16,7.57v9.41l-16-4.66Z"/><path class="cls-1" d="M.64,42.07a1.62,1.62,0,0,0,1,.39c1.25,0,2.79.08,3.37.13q10.17,1,20.34,1.95c2.41.23,4.83.59,7.24.63V30.32c-10.44.8-20.85,1.92-31.28,2.87-.93.09-1.29.39-1.27,1.33s0,3,0,4.81c0,.2,0,.4,0,.6C-.07,41,.1,41.71.64,42.07Z"/><path class="cls-1" d="M66.5,34.53a1.71,1.71,0,0,0-1.06-1.18c-3.85-.42-7.71-.71-11.57-1.08-4.19-.4-8.37-.85-12.56-1.26-2.08-.2-4.18-.58-6.25-.7V45.1c2.52-.18,5-.63,7.57-.87,6.54-.61,13.09-1.13,19.63-1.75,4.31-.4,4.31-.45,4.29-4.74A21.46,21.46,0,0,0,66.5,34.53Z"/><path class="cls-1" d="M50.06,49.33H50L38.62,51.24c1.28-.24,2.57-.47,3.84-.72V49l.06-.48L32.6,47.41,0,50.9l0,.49c0,2.64.05,5,0,7.37a1.75,1.75,0,0,0,1.25,1.89c2.27,1,4.45,2.18,6.73,3.14a4.89,4.89,0,0,0,2.55.2c1.64-.28,3.24-.77,5.25-1.27,0,1.3.07,2.25,0,3.19a2,2,0,0,0,1.39,2.3c5,2.29,10,4.7,15,7a2.69,2.69,0,0,0,2,.13Q49.74,68,65.25,60.61c.47-.23,1.18-.67,1.19-1,.1-2.6.06-5.21.06-8l0-.48ZM2.76,52a6.5,6.5,0,0,0-1.11-.33l31-3.31,8,.87c-7.72,1.15-15.44,2.26-23.12,3.65C12.42,53.82,7.56,54.06,2.76,52Zm26.83,7.64c-4.07-1.37-8.29-2.53-12.71-3.78L50,50.3l15,1.64c-9,2.54-18,5-26.93,7.7A13.16,13.16,0,0,1,29.59,59.67Z"/></g></g></svg>