<svg xmlns="http://www.w3.org/2000/svg" viewBox="0 0 63.51 74.07"><defs><style>.cls-1{fill:#0b202b;}</style></defs><g id="Capa_2" data-name="Capa 2"><g id="Capa_1-2" data-name="Capa 1"><g id="_78vQOU.tif" data-name="78vQOU.tif"><path class="cls-1" d="M11.63,59.65,9,60.3c-1,.25-2,.51-3,.74-.2,0-.47.27-.62,0-.13,0-.27.1-.36.06L0,58.73V15.33L31.75,0,48.64,8.21V19.68l-2.87.53c-1.09.2-2.18.34-3.25.58a4.71,4.71,0,0,1-2.21-.24c-2.79-.65-5.57-1.34-8.35-2a1,1,0,0,0-.42,0l-6.45,1.55L15.77,22.3c-1.35.33-2.69.66-4.14,1Z"/><path class="cls-1" d="M31.75,74.07l-16.88-8.2V54.43l2-.37c1.57-.28,3.13-.6,4.7-.8a4.89,4.89,0,0,1,1.66.27c1.85.43,3.71.89,5.56,1.34l2.65.65a1.57,1.57,0,0,0,.68,0c2.91-.68,5.82-1.39,8.73-2.08L51.35,51l.52-.17V14.41l2.36-.6c1.21-.31,2.41-.63,3.62-.93a.94.94,0,0,1,.62,0q2.46,1.17,4.92,2.39s.06,0,.12.1V58.74Z"/><path class="cls-1" d="M43,44.72l-7.53.89c-1,.12-2,.31-3.06.33a24.38,24.38,0,0,1-3.19-.19c-2.63-.28-5.26-.61-7.89-.91l-.9-.13V29.37l1.68-.22c3.05-.35,6.09-.73,9.14-1a8.46,8.46,0,0,1,1.94.11l8.53,1c.4.05.8.08,1.27.12a3.46,3.46,0,0,1,.09.53V44.2A3.47,3.47,0,0,1,43,44.72Z"/></g></g></g></svg>