<svg xmlns="http://www.w3.org/2000/svg" viewBox="0 0 60.28 85.21"><defs><style>.cls-1{fill:#0b202b;}</style></defs><g id="Capa_2" data-name="Capa 2"><g id="Capa_1-2" data-name="Capa 1"><g id="_3QnkOn.tif" data-name="3QnkOn.tif"><path class="cls-1" d="M30.12,85.21h0s0,0-.06,0l-1-.28L12.64,80.33l-7-1.93c-.16,0-.2-.11-.21-.27,0-.51-.09-1-.13-1.53-.07-.71-.13-1.42-.2-2.13L5,72.4c-.06-.71-.13-1.42-.19-2.13,0-.53-.09-1.07-.14-1.61-.06-.7-.13-1.4-.19-2.11s-.12-1.39-.19-2.08-.13-1.41-.19-2.11l-.18-2.09c-.06-.71-.13-1.42-.19-2.13L3.5,56.07c-.07-.7-.13-1.4-.2-2.1l-.18-2.09c-.06-.73-.13-1.45-.19-2.17l-.18-2.05c-.07-.7-.13-1.4-.2-2.11l-.18-2.09c-.06-.71-.13-1.41-.19-2.12L2,39.27c-.06-.72-.13-1.43-.2-2.15s-.11-1.37-.17-2-.14-1.43-.2-2.15l-.18-2.06c-.06-.71-.13-1.41-.19-2.11S.94,27.36.87,26.66.75,25.25.68,24.55L.5,22.46c-.08-.85-.16-1.7-.23-2.56s-.14-1.46-.2-2.19c0-.31,0-.61-.07-.94H59.87c.45,0,.44,0,.39.45-.08.72-.14,1.44-.2,2.15l-.18,2.05c-.07.72-.13,1.43-.2,2.15l-.18,2.05c-.06.71-.13,1.43-.19,2.15-.05.52-.09,1-.14,1.57-.06.73-.13,1.46-.2,2.19s-.11,1.33-.17,2-.13,1.45-.2,2.17l-.18,2c-.06.72-.13,1.45-.19,2.17l-.18,2c-.07.73-.13,1.45-.2,2.17-.05.53-.09,1-.14,1.58-.06.71-.13,1.43-.19,2.15l-.18,2c-.06.72-.13,1.43-.19,2.15S57,53.36,57,54s-.13,1.46-.2,2.19l-.18,2c-.06.73-.13,1.46-.19,2.19l-.18,2c-.07.73-.13,1.46-.2,2.19s-.11,1.34-.17,2-.14,1.43-.2,2.14l-.18,2-.24,2.58c-.06.69-.11,1.38-.17,2.07-.08.86-.17,1.71-.23,2.56a.35.35,0,0,1-.31.38l-8.79,2.44L31.08,84.91ZM12.54,44.62c0,.19,0,.34,0,.49.06.69.13,1.38.19,2.07l.18,2.08c.08.88.16,1.75.23,2.63,0,.33,0,.33.35.33H39.09c.3,0,.29,0,.26.3s-.07.74-.1,1.11c0,.53-.09,1-.13,1.57-.07.7-.14,1.39-.2,2.09s-.11,1.38-.18,2.07-.13,1.48-.19,2.23c0,.35,0,.36-.36.45l-7.94,2.14a.58.58,0,0,1-.32,0L21.9,62a.24.24,0,0,1-.21-.26c-.06-.7-.11-1.4-.18-2.09-.1-1.18-.21-2.36-.32-3.54,0-.15-.06-.2-.21-.2H13.74c-.16,0-.2.06-.19.21.08.81.15,1.61.22,2.42.09,1,.19,2,.28,3s.14,1.71.22,2.56c.1,1.16.22,2.33.31,3.49a.29.29,0,0,0,.24.3l15,4.16a.89.89,0,0,0,.56,0l8.84-2.45,6.17-1.71c.17-.05.25-.12.25-.31s0-.41.05-.62c.06-.72.13-1.44.2-2.17,0-.52.09-1,.13-1.57.07-.71.13-1.43.2-2.15,0-.52.09-1,.14-1.57.06-.71.13-1.42.19-2.13,0-.53.09-1.06.14-1.59.06-.73.13-1.46.19-2.19.05-.51.1-1,.14-1.55.07-.71.13-1.43.2-2.15,0-.52.09-1,.13-1.57.07-.72.13-1.44.2-2.17,0-.51.09-1,.14-1.52.06-.73.13-1.45.19-2.17.05-.53.09-1,.14-1.57.06-.71.13-1.42.19-2.13.05-.53.09-1.06.14-1.59.07-.73.13-1.45.2-2.17,0-.53.09-1,.13-1.57.07-.73.14-1.45.2-2.17.05-.53.08-1.07.15-1.59s.06-.4-.33-.4H11.38l-.2,0v.21c.05.49.09,1,.14,1.47l.27,3c.09.89.18,1.78.24,2.67,0,.25.11.28.33.28H40.4c.33,0,.33,0,.3.34-.06.56-.11,1.12-.16,1.68s-.09,1.06-.13,1.59c-.07.73-.14,1.46-.2,2.19-.05.55-.11,1.1-.15,1.65,0,.19-.11.22-.27.22l-10.23,0h-17Z"/><path class="cls-1" d="M34.28,11.64H25.16V8.16h5.29V7.49H25.16V0h9.13v3.3H29V4h5.29Z"/><path class="cls-1" d="M36.14,8.15h5.3V7.49h-5.3V0h9.12V3.32H40V4h5.29v7.65H36.14Z"/><path class="cls-1" d="M14.18,0H23.3V3.81H18V7.64H23.3v3.83H14.18Z"/></g></g></g></svg>