<svg xmlns="http://www.w3.org/2000/svg" viewBox="0 0 71.63 71.63"><defs><style>.cls-1{fill:#0b202b;}</style></defs><g id="Capa_2" data-name="Capa 2"><g id="Capa_1-2" data-name="Capa 1"><g id="ZduL1f"><path class="cls-1" d="M0,35.81A35.82,35.82,0,1,1,35.62,71.63,35.79,35.79,0,0,1,0,35.81Zm50,9.91c-.31-.2-.29-.46-.35-.69q-2.94-12.15-5.87-24.29c-.18-.74-.47-1-1.26-1-2.37.06-4.74.05-7.12,0-.88,0-1,.2-.76,1.06Q39.72,37,44.73,53.15c.69,2.21.52,2.73-1.48,3.94a11.78,11.78,0,0,1-1.61.75,16.21,16.21,0,0,1-4,1c-.57.07-.68.32-.61.82.26,1.62.5,3.24.72,4.87.08.53.33.69.84.63a21.77,21.77,0,0,0,8.77-2.58,17.51,17.51,0,0,0,7.63-10c1.88-5.65,3.68-11.34,5.51-17l4.71-14.63c.21-.64.49-1.19-.65-1.16-2.4.06-4.81,0-7.22,0-.63,0-.84.29-1,.82q-1.9,7.56-3.84,15.1ZM8,36c0,.7,0,1.4,0,2.09.66,8.28,5.63,14,13.49,14.68a16.69,16.69,0,0,0,11.76-3.13c.51-.37.67-.66.22-1.25-1-1.36-2-2.78-2.94-4.2-.29-.43-.53-.51-1-.2a11.94,11.94,0,0,1-3.19,1.55c-4.44,1.33-7.84-.59-8.83-5.09a21.1,21.1,0,0,1,.23-10c.77-2.9,2.59-4.57,5.24-4.85a9,9,0,0,1,6.42,1.73c.55.4.86.41,1.26-.16.9-1.29,1.82-2.56,2.79-3.79.45-.57.31-.86-.19-1.25a15.16,15.16,0,0,0-8.36-3.26c-5.22-.39-9.76,1-13.17,5.16C8.88,27.51,8,31.63,8,36Z"/></g></g></g></svg>