<svg xmlns="http://www.w3.org/2000/svg" viewBox="0 0 93.27 37.84"><defs><style>.cls-1{fill:#0b202b;}</style></defs><g id="Capa_2" data-name="Capa 2"><g id="Capa_1-2" data-name="Capa 1"><g id="_5YLxpx.tif" data-name="5YLxpx.tif"><path class="cls-1" d="M93.27,37.11c-3.22,1.18-6.28,1-9-1.3-1.69-1.48-2.1-3.51-2.11-5.64,0-4.78,0-9.55,0-14.33A1.78,1.78,0,0,0,82,14.67H77.72a23.78,23.78,0,0,1,0-4.05h4.52V3.27a30.72,30.72,0,0,1,4.5,0V10.5c2.16.23,4.22,0,6.34.16a21,21,0,0,1,0,4H87a1.28,1.28,0,0,0-.27,1.07q0,6.8,0,13.59c0,.14,0,.28,0,.42.07,3.29,2.46,4.81,5.53,3.55a2.07,2.07,0,0,1,1-.34Z"/><path class="cls-1" d="M0,0H11.37A18.75,18.75,0,0,1,23.76,4.19a17,17,0,0,1,5.94,11.4A20.21,20.21,0,0,1,28,27.21C25.24,33,20.45,36,14.23,36.74c-4.57.55-9.18.14-13.77.2A1.93,1.93,0,0,1,0,36.85ZM4.4,32.6a2.71,2.71,0,0,0,.36.1,66.36,66.36,0,0,0,9.14-.18c4.94-.71,8.61-3.2,10.45-8a18,18,0,0,0,.82-8.76A12.55,12.55,0,0,0,13.69,4.4c-2.93-.32-5.87-.09-8.81-.15a.52.52,0,0,0-.48.21Z"/><path class="cls-1" d="M54.55,36.89H50.6c-.22-1.15,0-2.32-.14-3.45-.37,0-.42.23-.55.39-4,5.25-11.34,4.76-15.18,1.63s-4.57-11.4,2.39-14.25a16.63,16.63,0,0,1,12.46.11c.25.09.47.31.77.24a6.14,6.14,0,0,0-2.58-6.5,8.72,8.72,0,0,0-11,1.57c-.18.21-.35.43-.61.73l-3.27-2.45a7.35,7.35,0,0,1,1.81-2.15c4-3.62,11.7-4,16.08-.86a9.46,9.46,0,0,1,4,8c.07,5.39,0,10.78,0,16.18A1,1,0,0,1,54.55,36.89ZM50.4,25.63c-.11-.11-.15-.19-.22-.23a12.36,12.36,0,0,0-11-.79A4.74,4.74,0,0,0,40,33.54a8.21,8.21,0,0,0,9-3.39A7,7,0,0,0,50.4,25.63Z"/><path class="cls-1" d="M73.64,10.41a33.69,33.69,0,0,1,.06,4.35c-.36.28-.64.13-.91.1-2.78-.26-5.3.22-7.22,2.48a8.75,8.75,0,0,0-1.83,5.88c0,4.3,0,8.61,0,12.91a2.47,2.47,0,0,1-.16,1.21,25.72,25.72,0,0,1-4.21,0V11.14a23.15,23.15,0,0,1,4.08,0c.23,1.3,0,2.58.18,4C65.89,11.06,69.36,10,73.64,10.41Z"/></g></g></g></svg>