<svg xmlns="http://www.w3.org/2000/svg" viewBox="0 0 93.04 60.21"><defs><style>.cls-1{fill:#0b202b;}</style></defs><g id="Capa_2" data-name="Capa 2"><g id="Capa_1-2" data-name="Capa 1"><g id="i1z2iK.tif"><path class="cls-1" d="M.29,28.71H8.37V19h9.5V9.44h19V0H48.39V18.93h9.48v9.71c5,.2,10,.2,14.56-2.49C69.9,22.25,69.7,18.08,71,13.78a8.94,8.94,0,0,1,2.65-4.07c3.61,2.66,6.39,5.85,7.18,10.47a16.31,16.31,0,0,1,8.15-.1A12.64,12.64,0,0,1,93,22a11.55,11.55,0,0,1-5.69,6.37A17.46,17.46,0,0,1,78.77,30a4.39,4.39,0,0,0-.84,1.67A46.85,46.85,0,0,1,65.59,48.51,45.28,45.28,0,0,1,53.31,56a52.64,52.64,0,0,1-10.42,3.09,57.41,57.41,0,0,1-17,.84A29.9,29.9,0,0,1,8.68,52.64,25,25,0,0,1,.77,39.53,29.3,29.3,0,0,1,.29,28.71ZM32.87,58.46a20.65,20.65,0,0,1-10-10.17c-5,1.32-10.09,1.32-15.18,1.21a27.33,27.33,0,0,0,10.83,7.16A36.14,36.14,0,0,0,32.87,58.46ZM29.09,20.57v8.18h8.12V20.57Zm-1.41,8.19c.11-2.76.06-5.47,0-8.16H19.54v8.16Zm20.43-8.18v8.18h8.17V20.58Zm-9.53,8.18h8.1V20.58h-8.1Zm-20.4-8.19h-8.1v8.19h8.1ZM46.71,9.73c0-2.76.08-5.42,0-8.15h-8.1V9.73ZM19.55,11.1v8.11h8.13V11.1Zm9.52,0v8.13h8.15V11.09Zm17.62,8.13V11.11H38.58v8.11ZM29.47,44.42a2.24,2.24,0,0,0-2.26-2.26A2.27,2.27,0,0,0,25,44.46a2.25,2.25,0,1,0,4.49,0Z"/><path class="cls-1" d="M27.61,42.92c-.28,1,0,1.33,1.17,1.08a1.6,1.6,0,0,1-.85,1.91,1.54,1.54,0,0,1-1.86-.33,1.69,1.69,0,0,1-.3-1.86A1.52,1.52,0,0,1,27.61,42.92Z"/></g></g></g></svg>