<svg xmlns="http://www.w3.org/2000/svg" viewBox="0 0 62.25 69.95"><defs><style>.cls-1{fill:#0b202b;}</style></defs><g id="Capa_2" data-name="Capa 2"><g id="Capa_1-2" data-name="Capa 1"><g id="wvMm1N.tif"><path class="cls-1" d="M0,22.75V15.36C2.1,13,4.17,10.59,6.32,8.26A8.48,8.48,0,0,1,8.59,6.49C12.79,4.28,17,2.16,21.26,0H41.05V13.24l14,4.33V7.26c2.41,2.83,4.56,5.33,6.69,7.84a1.46,1.46,0,0,1,.42.75c0,2.3,0,4.59,0,6.93l-2,.38v1.89l1.93,1.25v6.84l-1.95.45v3l2,.52v6.81L60,45.25l.1,1.86,1.92.33c.28,3.87.77,7.65-2.75,10.57a37.27,37.27,0,0,0-4,4.56L55,62.45V52.66L41,57V69.77a3.93,3.93,0,0,1-.68.16q-9.37,0-18.75,0a3.49,3.49,0,0,1-1.38-.41c-3.92-1.94-7.84-3.89-11.73-5.88a7,7,0,0,1-1.94-1.52c-2.19-2.46-4.32-5-6.47-7.48V47.28H2.19V45.22L0,44V36.64H2.14V33.52L0,33.39V26l2.27-1-.1-1.88ZM41.14,38V51.16L54.86,48V37.47Zm13.75-5.22V22.24L41.14,19.06V32.19Z"/></g></g></g></svg>