<svg xmlns="http://www.w3.org/2000/svg" viewBox="0 0 63.08 78.48"><defs><style>.cls-1{fill:#0b202b;}</style></defs><g id="Capa_2" data-name="Capa 2"><g id="Capa_1-2" data-name="Capa 1"><g id="fyxZhk.tif"><path class="cls-1" d="M39,78.48,21,60.3c-.95-.94-1.91-1.87-2.95-2.88.39-.44.7-.83,1-1.18C25.35,50,31.66,43.69,37.93,37.37a3.68,3.68,0,0,1,2.9-1.17c6.74.06,13.48,0,20.23,0H63c-7.13,7.08-14,13.94-21.22,21.1,2.15,2,4.12,3.81,6,5.69q7.7,7.7,15.33,15.46Z"/><path class="cls-1" d="M62.84,0l-51,51L0,39.1c.27-.29.62-.67,1-1Q19.49,19.58,38,1.12A4,4,0,0,1,40.54.06C47.91,0,55.29,0,62.84,0Z"/></g></g></g></svg>