<svg xmlns="http://www.w3.org/2000/svg" viewBox="0 0 72.21 72.23"><defs><style>.cls-1{fill:#0b202b;}</style></defs><g id="Capa_2" data-name="Capa 2"><g id="Capa_1-2" data-name="Capa 1"><g id="j617HJ.tif"><path class="cls-1" d="M0,38.14V34c.34-1.93.6-3.88,1-5.79A35.88,35.88,0,0,1,43.11.69C62,4.4,74.21,21.61,71.94,40.78a36.13,36.13,0,0,1-27.73,30.4c-2,.42-4,.7-5.94,1H34.09c-.89-.14-1.76-.3-2.65-.41A36.07,36.07,0,0,1,1,43.93C.61,42,.34,40.07,0,38.14Zm8.58-8.49c11.39,11.41,22.67,22.69,34,34C54.61,61.77,67.11,46,64.42,36h-18v5.33H58.61c-1,6.92-8.57,15.29-14.36,16.29L14.49,27.82c2.72-6.6,7.43-11.56,14.58-13.73,10.63-3.22,19.27.27,26.3,8.61l3.86-3.38C52.71,9.82,40.31,5.49,28.68,8.53,18.73,11.14,9.32,21.13,8.58,29.65Zm-.69,7C5.53,49.33,22.78,66.42,35,64.49Z"/></g></g></g></svg>