<svg xmlns="http://www.w3.org/2000/svg" viewBox="0 0 80.06 80.68"><defs><style>.cls-1{fill:#0b202b;}</style></defs><g id="Capa_2" data-name="Capa 2"><g id="Capa_1-2" data-name="Capa 1"><g id="nqJjmG.tif"><path class="cls-1" d="M41.27,80.68H38.78a15.44,15.44,0,0,1-3.34-2.54Q19,61.55,2.56,45A9.56,9.56,0,0,1,0,41.24V39.09a14.15,14.15,0,0,1,1.68-2.68q11.48-11.5,22.89-23.06c.7-.72,1.07-.76,1.78,0q3.55,3.75,7.27,7.36a1.94,1.94,0,0,1,.56,2,5.83,5.83,0,0,0,2.6,6.37,2.11,2.11,0,0,1,1,2.06q0,9.68,0,19.35a2.07,2.07,0,0,1-1.07,2,6.16,6.16,0,1,0,7.34.34,2.91,2.91,0,0,1-1.12-2.58c0-6,0-11.95,0-17.92,0-.57-.18-1.17.19-1.7.13,0,.26,0,.33.1,2,2,3.91,4,6,5.91a3.79,3.79,0,0,1,1.4,3.67A6,6,0,0,0,56.91,47,6.16,6.16,0,0,0,63,40.27a6.06,6.06,0,0,0-6.87-5.62,2.3,2.3,0,0,1-2.31-.83c-2.15-2.22-4.32-4.44-6.54-6.59a3,3,0,0,1-1-2.64,6,6,0,0,0-6.94-6.71,2,2,0,0,1-1.89-.62q-3.73-3.84-7.55-7.6c-.67-.65-.65-1,0-1.67,1.93-1.86,3.79-3.79,5.68-5.69,3-3,5.71-3.07,8.72,0Q61,19.1,77.73,36c3.1,3.12,3.1,5.81,0,8.92q-16.35,16.48-32.68,33A12.41,12.41,0,0,1,41.27,80.68Z"/></g></g></g></svg>