<svg xmlns="http://www.w3.org/2000/svg" viewBox="0 0 65.36 77.09"><defs><style>.cls-1{fill:#0b202b;}</style></defs><g id="Capa_2" data-name="Capa 2"><g id="Capa_1-2" data-name="Capa 1"><path class="cls-1" d="M64.89,21c-1.77-4.33-5.91-7.41-10.4-6.91a9.9,9.9,0,0,0-8.82,7.53,9.91,9.91,0,0,0,4,10.77,1.46,1.46,0,0,1,.49,2.28,6.45,6.45,0,0,1-5.47,3.57A27.52,27.52,0,0,0,37,39.83c0-6,0-12,0-18a3.53,3.53,0,0,1,1.72-3.45A10.12,10.12,0,1,0,25.92,2.67c-4.23,3.94-4.62,11.16-.18,14.65,2.63,2.06,3,4.18,2.86,7-.14,4.45,0,8.91,0,13.37a5.08,5.08,0,0,1-.17,2.19,17.29,17.29,0,0,0-6.93-1.62,6.7,6.7,0,0,1-6.61-5,10.26,10.26,0,0,0,5.41-8.49A10.13,10.13,0,0,0,.78,20.27a10.25,10.25,0,0,0,4.1,12.64c.6.38,1.18.66,1.41,1.55,2,7.65,7.19,11.94,15,12.43a7.5,7.5,0,0,1,2.88.53c3.23,1.53,4.47,4.13,4.3,7.66-.06,1.46-.14,2.52-1.59,3.51a9.46,9.46,0,0,0-4.3,9.26A10,10,0,0,0,29,76.4c.43.18,1,.19,1.24.69h4.42A28.74,28.74,0,0,0,39,74.92c5-3.62,5.47-12.18,0-16.11a4,4,0,0,1-1.79-4c.12-4.2,1.43-6.33,4.83-7.62,1.47-.56,3-.27,4.52-.54A16.18,16.18,0,0,0,59.34,34.51c.12-.53,0-1.07.68-1.39a10,10,0,0,0,5.16-6.87A11.15,11.15,0,0,0,64.89,21ZM10.23,28a3.79,3.79,0,1,1-.06-7.57A3.79,3.79,0,0,1,10.23,28ZM32.72,6.38a3.76,3.76,0,0,1,3.83,3.85A3.82,3.82,0,0,1,32.8,14,3.78,3.78,0,0,1,29,10.12,3.71,3.71,0,0,1,32.72,6.38Zm.06,64.28a3.92,3.92,0,0,1-3.72-3.85,3.42,3.42,0,0,1,3.77-3.57,3.58,3.58,0,0,1,3.68,3.56A3.93,3.93,0,0,1,32.78,70.66ZM55.2,28.08a3.82,3.82,0,0,1-3.69-4,3.73,3.73,0,0,1,4-3.7,3.87,3.87,0,0,1-.3,7.73Z"/></g></g></svg>