<svg xmlns="http://www.w3.org/2000/svg" viewBox="0 0 75.1 84.37"><defs><style>.cls-1{fill:#0b202b;}</style></defs><g id="Capa_2" data-name="Capa 2"><g id="Capa_1-2" data-name="Capa 1"><g id="QaQwkp"><path class="cls-1" d="M5.69,52.14V32c-2.84-1-4.91-2.69-5.53-5.78A7.36,7.36,0,0,1,1.25,20.6c2.43-3.74,6.88-4.14,11.71-.93l17.37-10c-.55-3,0-5.6,2.15-7.69A7.16,7.16,0,0,1,37.72,0c4.76.11,7.18,3.38,7,9.67l17.36,10c2.23-1.95,4.76-2.86,7.66-2a7.34,7.34,0,0,1,4.66,10.07c-1,2.2-2.82,3.38-5,4.24V52.23c2.77,1.12,5,2.91,5.55,6.11a7,7,0,0,1-1.16,5.3c-2.63,3.93-6.84,4.28-12,.89L44.67,74.42c.38,6.24-2.18,9.82-6.9,10a7.14,7.14,0,0,1-6.08-2.88,7.84,7.84,0,0,1-1.33-6.77L12.9,64.64a7.78,7.78,0,0,1-7.71,2A6.52,6.52,0,0,1,1,63.2a7.2,7.2,0,0,1-.33-6.59C1.5,54.67,2.15,54.11,5.69,52.14ZM35.21,14.6,12.49,53.94l2.35,3.93H60.22l2.28-4L39.83,14.6ZM14.62,61.87l17.31,10c3.65-2.82,7.45-3,11.24,0a1,1,0,0,0,.3-.07q8.2-4.71,16.41-9.44a3.58,3.58,0,0,0,.69-.78C59.13,61.11,16.25,61.07,14.62,61.87ZM9.38,52.55c.42-.59.72-.94.94-1.33l16.8-29.07c1.54-2.67,3.09-5.33,4.62-8a12.08,12.08,0,0,0,.59-1.44L32,12.44,14.55,22.51c.78,4.75-1.09,7.86-5.34,9.48C8.8,33.68,8.86,51,9.38,52.55ZM43.09,12.47l-.44.34c.48.91,1,1.83,1.46,2.72l14.07,24.4c2.13,3.68,4.24,7.36,6.38,11a13.79,13.79,0,0,0,1.06,1.36l.26-.18V32c-4.5-1.55-6.06-4.77-5.4-9.42Z"/></g></g></g></svg>