<svg xmlns="http://www.w3.org/2000/svg" viewBox="0 0 66.03 77.11"><defs><style>.cls-1{fill:#0b202b;}</style></defs><g id="Capa_2" data-name="Capa 2"><g id="Capa_1-2" data-name="Capa 1"><g id="XeJnYp.tif"><path class="cls-1" d="M66,15.05a30.58,30.58,0,0,1-1.77,11,11.49,11.49,0,0,0,0,7.72C67.72,44.85,66.1,55.18,59,64.35c-6.95,9-16.37,13.26-27.73,12.71C15.85,76.32,2.65,64.09.43,48.81A32.81,32.81,0,0,1,1.73,34a12.75,12.75,0,0,0-.25-8.84C.09,21.57,0,17.82,0,14.07A43.36,43.36,0,0,1,2,1.59C2.4.38,3-.11,3.93.05s1.35.8,1.43,2a21,21,0,0,0,3,10.28,10.44,10.44,0,0,0,4.43,3.92,2.92,2.92,0,0,0,3-.16,32.45,32.45,0,0,1,18.82-4.91,31.61,31.61,0,0,1,15.36,4.65,3.58,3.58,0,0,0,4.27,0c3.36-2.19,5-5.42,5.9-9.18a24.16,24.16,0,0,0,.64-4.87A1.64,1.64,0,0,1,64,1.29,44.58,44.58,0,0,1,66,15.05ZM58,44.19a25.07,25.07,0,1,0-24.91,25A24.86,24.86,0,0,0,58,44.19Z"/><path class="cls-1" d="M40.33,55.48a3.27,3.27,0,0,1-3-1.48c-1-1.44-2-2.9-3.05-4.34-.73-1-1.13-1-2-.08-1.33,1.58-2.66,3.16-4,4.72a3.22,3.22,0,0,1-4.68.58,3.3,3.3,0,0,1,0-4.89c1.86-2,3.69-4.07,5.58-6.08a1.62,1.62,0,0,0,.18-2.34c-1.25-1.84-2.44-3.73-3.64-5.61a3.15,3.15,0,0,1,.75-4.58A3.25,3.25,0,0,1,31,32.46q5.77,8.91,11.5,17.84a3.25,3.25,0,0,1,.24,3.54A3,3,0,0,1,40.33,55.48Z"/></g></g></g></svg>