<svg xmlns="http://www.w3.org/2000/svg" viewBox="0 0 58.92 83.19"><defs><style>.cls-1{fill:#0b202b;}</style></defs><g id="Capa_2" data-name="Capa 2"><g id="Capa_1-2" data-name="Capa 1"><g id="_559PVs.tif" data-name="559PVs.tif"><path class="cls-1" d="M42.66,0V11.21H38.92V5.73h0l-2.57,4-2.57-4h0v5.47H30V0H34A.59.59,0,0,0,34,.14c.74,1.23,1.49,2.45,2.23,3.67l.09.11.07-.11L38.67.13s0-.09,0-.13Z"/><path class="cls-1" d="M16.41,0c0,.09,0,.17,0,.26V11.2H12.64V7.48H9.22v3.73H5.48a1.7,1.7,0,0,1,0-.22V.2a1.36,1.36,0,0,1,0-.2H9.22V3.69h3.42V0Z"/><path class="cls-1" d="M28.4,0c0,.19,0,.38,0,.57,0,1,0,2,0,3,0,.15,0,.2-.2.2H25.08v7.49H21.33V3.73H18V0Z"/><path class="cls-1" d="M48.27,0V7.51h5.27v3.7h-9s0-.07,0-.1V0Z"/><path class="cls-1" d="M0,16.36H58.92c0,.27,0,.52-.06.78-.22,2.5-.45,5-.67,7.5l-.63,7.06c-.22,2.5-.45,5-.67,7.5-.2,2.21-.39,4.41-.59,6.62q-.34,4-.71,8c-.2,2.2-.39,4.41-.59,6.61-.22,2.5-.45,5-.67,7.5s-.42,4.71-.62,7.06q-.08.69-.12,1.38a.26.26,0,0,1-.23.27L41.16,80l-11.5,3.19a.87.87,0,0,1-.48,0l-23-6.38-.72-.2c-.12,0-.15-.09-.16-.2-.1-1.11-.19-2.22-.29-3.33l-.39-4.33c-.12-1.28-.23-2.57-.34-3.85l-.39-4.34C3.8,59.25,3.69,58,3.58,56.7l-.39-4.39C3.07,51,3,49.75,2.84,48.47c-.12-1.45-.26-2.9-.38-4.35-.12-1.28-.23-2.56-.35-3.84l-.39-4.37c-.11-1.28-.22-2.55-.34-3.82L1,27.7C.88,26.42.76,25.13.65,23.85L.26,19.51c-.09-1-.17-2-.26-2.92ZM13.29,54.68v.21c.07.8.14,1.6.22,2.4.13,1.44.26,2.87.38,4.31s.27,3,.4,4.45a.25.25,0,0,0,.22.27l14.75,4.09a.62.62,0,0,0,.33,0l12.13-3.36,2.66-.74c.08,0,.18,0,.19-.16l.24-2.75c.1-1.13.2-2.25.31-3.38.11-1.3.23-2.6.34-3.9l.3-3.38c.12-1.3.24-2.6.35-3.9.11-1.14.21-2.28.31-3.42,0-.6.11-1.2.16-1.81H19.69L19,36H47.26l.66-7.37H11v.21c.08.83.15,1.65.22,2.47.12,1.3.24,2.59.35,3.88s.23,2.57.34,3.85.23,2.59.35,3.88.23,2.58.34,3.86.24,2.61.35,3.91c0,.2.07.25.27.25H38.52c-.05.53-.09,1-.14,1.55-.12,1.29-.23,2.57-.35,3.86s-.24,2.64-.35,4c0,.14-.07.2-.21.24l-7.88,2.12a.65.65,0,0,1-.34,0l-7.83-2.11a.26.26,0,0,1-.24-.28c-.12-1.44-.25-2.87-.38-4.31l-.12-1.35Z"/></g></g></g></svg>