<svg xmlns="http://www.w3.org/2000/svg" viewBox="0 0 80.51 57.3"><defs><style>.cls-1{fill:#0b202b;}</style></defs><g id="Capa_2" data-name="Capa 2"><g id="Capa_1-2" data-name="Capa 1"><g id="_7USUDJ" data-name="7USUDJ"><path class="cls-1" d="M40.54,45.47l9.32-5.41c.48.68.92,1.34,1.4,2a12.11,12.11,0,0,0,14.4,4.09,5.08,5.08,0,0,0,3.22-4A5,5,0,0,0,66.66,37a36.78,36.78,0,0,0-4.58-2.49c-2.85-1.37-5.79-2.57-8.61-4a18.11,18.11,0,0,1-6.81-5.75,15.34,15.34,0,0,1-2.61-7.54,15.92,15.92,0,0,1,1.18-8.1,14.15,14.15,0,0,1,9-7.94A20.83,20.83,0,0,1,69.85,2c3.26,1.53,5.49,4.18,7.3,7.32l-9,5.76-.29-.45a23.31,23.31,0,0,0-1.49-2,7.09,7.09,0,0,0-7.5-2.14A4.38,4.38,0,0,0,55.45,14a5,5,0,0,0,1.66,5,19.19,19.19,0,0,0,4.62,2.62c3,1.4,6.09,2.72,9.06,4.23a19.33,19.33,0,0,1,6.52,5.19,14.89,14.89,0,0,1,3.11,8.13,17.58,17.58,0,0,1-.78,7.42,14.51,14.51,0,0,1-8.4,8.75,25.44,25.44,0,0,1-12,1.76A24.73,24.73,0,0,1,50.41,55,20.42,20.42,0,0,1,40.77,46C40.7,45.82,40.64,45.68,40.54,45.47Z"/><path class="cls-1" d="M34.4.76V39.64a22.56,22.56,0,0,1-1.24,7.94A13.37,13.37,0,0,1,24.65,56a21.61,21.61,0,0,1-16-.5A17,17,0,0,1,.09,46.93,1.57,1.57,0,0,1,0,46.7L9.34,41c.13.2.24.39.36.56.62.95,1.19,1.94,1.88,2.84a6.45,6.45,0,0,0,6.31,2.44,8,8,0,0,0,1.54-.32,4.55,4.55,0,0,0,3.14-3.9,20.23,20.23,0,0,0,.28-3.39q0-18.89,0-37.79V.76Z"/></g></g></g></svg>