<svg xmlns="http://www.w3.org/2000/svg" viewBox="0 0 66.01 75.37"><defs><style>.cls-1{fill:#0b202b;}</style></defs><g id="Capa_2" data-name="Capa 2"><g id="Capa_1-2" data-name="Capa 1"><g id="E9Wuta.tif"><path class="cls-1" d="M12.93,75.37C4.61,75.29-1,68.33.15,59.68A40.72,40.72,0,0,1,4.43,47.27c.43-.87.88-1,1.77-.81,1.12.21.83.89.75,1.57-.63,5.22,1.47,9.1,5.75,12a3.23,3.23,0,0,0,3.41.32A34.74,34.74,0,0,0,31.43,48.08,2.79,2.79,0,0,1,34,46.68a9.53,9.53,0,0,0,9.42-7.93c.25-1.25.72-1.75,1.94-1.55a2.08,2.08,0,0,0,.35,0,9.28,9.28,0,0,1,3.14.16c1.06.44.63,1.85,1,2.8a9.73,9.73,0,0,0,13.39,5.56c1.43-.71,1.65-.12,2,1,1.81,6.46-1.74,12.59-8.37,14.44-3.58,1-7.29,1.18-10.9,2-5.8,1.24-11,3.94-16.28,6.53-4.47,2.19-8.9,4.51-13.88,5.38C14.8,75.18,13.86,75.25,12.93,75.37Z"/><path class="cls-1" d="M46.13,9.06c-1.4,2.82-2.82,5.62-4.21,8.44S39,23.4,37.56,26.33c-.23.47-.3,1.25-1.09,1.18s-.92-.83-1.12-1.41c-2.3-6.77-4.57-13.55-6.86-20.33C27.86,3.89,27.23,2,26.55,0H66c-1.68,5-3.32,9.85-5,14.73-1.3,3.83-2.61,7.66-3.9,11.49-.21.61-.3,1.36-1.12,1.38s-.8-.77-1-1.25Q50.92,18.17,46.9,10A1.44,1.44,0,0,0,46.13,9.06Z"/><path class="cls-1" d="M2.8,37.06a5.69,5.69,0,0,1,5.61-5.77,5.81,5.81,0,0,1,5.84,5.77,5.93,5.93,0,0,1-5.74,5.72A5.82,5.82,0,0,1,2.8,37.06Z"/><path class="cls-1" d="M59,31.25a5.73,5.73,0,0,1,5.81,5.63,5.82,5.82,0,0,1-5.65,5.82A5.9,5.9,0,0,1,53.3,37,5.81,5.81,0,0,1,59,31.25Z"/><path class="cls-1" d="M39.48,37a5.66,5.66,0,1,1-11.32-.17A5.66,5.66,0,1,1,39.48,37Z"/></g></g></g></svg>