<svg xmlns="http://www.w3.org/2000/svg" viewBox="0 0 71.5 74.07"><defs><style>.cls-1{fill:#0b202b;}</style></defs><g id="Capa_2" data-name="Capa 2"><g id="Capa_1-2" data-name="Capa 1"><g id="jJNcLZ"><path class="cls-1" d="M0,70.33c.69-1.07,1.33-2.08,2-3.08l3-4.61L14.46,47.9l8.37-13c2.16-3.35,4.31-6.71,6.5-10a1.45,1.45,0,0,0,.17-1.46c-1-3.11-2-6.24-3-9.37-.2-.63-.43-1.25-.6-1.88a.54.54,0,0,0-.64-.46h-8.6c-.65,0-.65,0-.65-.67V.61c0-.6,0-.6.58-.6L28.7,0c1.7,0,3.39,0,5.09,0a.63.63,0,0,1,.7.47q2.85,7.25,5.72,14.47C41.58,18.4,43,21.85,44.34,25.3Q48.66,36.15,53,47c1.59,4,3.16,8,4.75,12,.38.95.24.79,1.11.52,2.9-.88,5.79-1.79,8.68-2.69.64-.2.64-.19.84.43q1.34,4.17,2.69,8.35c.14.42.26.86.41,1.28s0,.44-.28.54c-1.56.48-3.12,1-4.67,1.48L56,72.2c-1.9.6-3.81,1.19-5.7,1.82-.42.13-.6,0-.76-.38q-3.36-8.55-6.76-17.11T36,39.47c-.06-.15-.07-.4-.29-.41s-.24.21-.33.34Q30.45,46.71,25.51,54l-4.32,6.37C19.46,62.92,17.71,65.47,16,68c-.42.62-.83,1.25-1.24,1.88a.77.77,0,0,1-.7.44H.31Z"/></g></g></g></svg>