<svg xmlns="http://www.w3.org/2000/svg" viewBox="0 0 67.36 79.13"><defs><style>.cls-1{fill:#0b202b;}</style></defs><g id="Capa_2" data-name="Capa 2"><g id="Capa_1-2" data-name="Capa 1"><g id="SeldIL"><path class="cls-1" d="M35.68,0c.37.27.8.13,1.2.2a11,11,0,0,1,8.26,6.9A27.19,27.19,0,0,1,47,17a25.5,25.5,0,0,0,.91,7.47,18.37,18.37,0,0,0,2.67,4.57,124.53,124.53,0,0,1,7.81,12,17.15,17.15,0,0,1,2.44,6.75,20.5,20.5,0,0,1-.57,7.11.78.78,0,0,0,.21.87,5.08,5.08,0,0,1,1.49,3.69,4.71,4.71,0,0,0,2.9,4.67c.39.19.79.37,1.17.59a2.52,2.52,0,0,1,.79,3.83,6.29,6.29,0,0,1-2.21,1.75c-2.83,1.52-5.67,3-8.35,4.81a12.42,12.42,0,0,0-2.14,1.62,8.16,8.16,0,0,1-4.2,2.37h-2A5.55,5.55,0,0,1,44,76a.76.76,0,0,0-.62-.39,37.71,37.71,0,0,0-11-.74q-3.07.28-6.11.83c-.33.06-.66.11-.84.45a5,5,0,0,1-5.63,2.3,49.3,49.3,0,0,1-6.51-2.08,38.67,38.67,0,0,0-8.14-1.9,10.69,10.69,0,0,1-3.88-1.2A2.22,2.22,0,0,1,.16,70.4c.22-.68.43-1.36.67-2A6.32,6.32,0,0,0,.82,64,4.61,4.61,0,0,1,.57,62.7a2.52,2.52,0,0,1,2-2.88c.81-.24,1.63-.41,2.45-.63A5.66,5.66,0,0,0,9.1,56,2.73,2.73,0,0,1,10,54.78,1.43,1.43,0,0,0,10.65,53a4.94,4.94,0,0,1,.46-3.59,67.39,67.39,0,0,0,3.3-8.53,33.18,33.18,0,0,1,5.74-9.78c.48-.61.89-1.27,1.4-1.84a7.15,7.15,0,0,0,1.76-5c.06-2.83-.15-5.65-.36-8.47a27.27,27.27,0,0,1,.34-8.21,8.79,8.79,0,0,1,5.78-6.49A27.1,27.1,0,0,1,33.21,0ZM23.45,66.74c1,1.18,2.05,2.35,3.06,3.54.21.24.47.2.71.23a32.47,32.47,0,0,0,8-.28c4.09-.6,7.19-2.84,9.79-5.92a1.16,1.16,0,0,0,.24-.85,54.22,54.22,0,0,1,.3-6.86,1.66,1.66,0,0,1,1.92-1.69,3.3,3.3,0,0,1,.77.08c.41.1.59-.05.67-.46a21.42,21.42,0,0,0-.22-10.9A123.61,123.61,0,0,0,41,25c-.69-1.38-1-1.45-2.37-.71-2.06,1.1-4.1,2.24-6.17,3.33a3.87,3.87,0,0,1-2.42.6,6.73,6.73,0,0,1-3.15-1.69c-.69-.56-1.3-1.22-2-1.85a10.89,10.89,0,0,1-1,5.27c-.57,1.38-1.71,2.4-2.28,3.74-1.71,4-3.12,8.07-4.95,12a12.48,12.48,0,0,0-.78,7.19c.32,2.07,1.74,3.37,3.22,4.63,1.74,1.49,3.62,2.79,5.3,4.36s1.43,4.22-.9,4.82C23.5,66.65,23.49,66.68,23.45,66.74Zm.48,5.75A6.69,6.69,0,0,0,22.38,69c-.48-.6-1-1.18-1.44-1.81-1.75-2.44-3.2-5.08-4.8-7.62a9.44,9.44,0,0,0-3-3.24c-.92-.57-1.49-.41-2,.52-.42.7-.81,1.43-1.19,2.16a3.07,3.07,0,0,1-2,1.61c-1,.25-1.95.47-2.91.74-1.83.52-2,.84-1.63,2.69a7.76,7.76,0,0,1-.07,3.8,12.83,12.83,0,0,0-.67,2.52,1.18,1.18,0,0,0,1,1.43,20.32,20.32,0,0,0,2.55.55,31.07,31.07,0,0,1,8.66,2.35,16.76,16.76,0,0,0,4.38,1.42,4.35,4.35,0,0,0,2.12.14A5,5,0,0,0,23.93,72.49ZM59.06,58.33a2,2,0,0,0-.15.19,6.4,6.4,0,0,1-5,3.72c-1.71.32-3.22-.07-4-1.2a4.84,4.84,0,0,1-.73-3.1c0-.55-.22-.62-.64-.55-.65.1-.83.56-.8,1.12.06,1.34.2,2.67.21,4a41,41,0,0,1-1.14,8.31,5.68,5.68,0,0,0,.55,4.23,2.57,2.57,0,0,0,3.42,1.18,7.55,7.55,0,0,0,2.8-1.73,27.24,27.24,0,0,1,7.6-5.05c1-.49,1.91-1,2.82-1.59s.87-1.11.08-1.76A9.44,9.44,0,0,0,62.41,65a4.2,4.2,0,0,1-2-2.13,6.77,6.77,0,0,1-.52-2.62A2.19,2.19,0,0,0,59.06,58.33Zm-28.26-32a3.33,3.33,0,0,0,1.81-.56c1.72-1,3.43-2,5.15-2.94.4-.23.88-.4.9-1s-.44-.84-.87-1.07a43.81,43.81,0,0,0-5.42-2.18A2.53,2.53,0,0,0,29.9,19c-1.34.89-2.46,2-3.74,3a.63.63,0,0,0-.15.9,9.26,9.26,0,0,0,4.48,3.46A1.07,1.07,0,0,0,30.8,26.29Zm6.91-7.57c.73.6,1.23.25,1.72-.3a5.44,5.44,0,0,0-.13-7,3.3,3.3,0,0,0-5,.16,5.17,5.17,0,0,0-1.11,4.33c.18,1.21.63,1.62,1.88,1.61a3.49,3.49,0,0,1,.33-3,1.7,1.7,0,0,1,2.95,0A3.27,3.27,0,0,1,37.71,18.72Zm-10.51.05c-1.87-.37-2.38-2.78-1.7-4.14a1.24,1.24,0,0,1,2.19-.31,2.77,2.77,0,0,1,.56.91,4.83,4.83,0,0,1,.16,2.36c1.65-.79,1.91-1.25,1.61-3a6.34,6.34,0,0,0-.39-1.48,2.9,2.9,0,0,0-2.45-2.06,2.51,2.51,0,0,0-2.45,1.69A5.67,5.67,0,0,0,25,18.63C25.85,19.88,26.06,19.88,27.2,18.77Z"/></g></g></g></svg>