<svg xmlns="http://www.w3.org/2000/svg" viewBox="0 0 89.5 44.13"><defs><style>.cls-1{fill:#0b202b;}</style></defs><g id="Capa_2" data-name="Capa 2"><g id="Capa_1-2" data-name="Capa 1"><g id="UOyEPe.tif"><path class="cls-1" d="M26.45,17.13C31.4,14.68,37,18.84,36.57,24.69a22.1,22.1,0,0,1,2.16,2.39,6.3,6.3,0,0,1-2.81,9.18,5.75,5.75,0,0,1-2,.41c-9.08,0-18.16,0-27.24,0A6.66,6.66,0,0,1,.13,31.14a6.86,6.86,0,0,1,3.59-7.46,6.88,6.88,0,0,1,1.52-.54,16.3,16.3,0,0,1,1.62-.2,5.82,5.82,0,0,1,5.69-2.46c.45-3.54,2.1-6.23,5.7-7.16S24.53,14.07,26.45,17.13ZM7.68,24.71l-.8-.05a4.44,4.44,0,0,0-3.4,1.07,5.21,5.21,0,0,0-1.74,5.2,4.8,4.8,0,0,0,3.51,4,6.82,6.82,0,0,0,1.81.15q13.35,0,26.7,0a4.25,4.25,0,0,0,1.37-.2,4.37,4.37,0,0,0,2.94-3.78,4.54,4.54,0,0,0-1.9-4.52c-.41-.31-.86-.56-1.33-.86.37-2.56-.07-4.9-2.22-6.59s-4.59-1.28-6.86.12c-.37-.66-.68-1.29-1.06-1.88a5.47,5.47,0,0,0-4.08-2.69A5.9,5.9,0,0,0,14.21,20c-.08.75-.12,1.49-.19,2.36C11.29,21.59,9,22,7.68,24.71Z"/><path class="cls-1" d="M56.66,12A5.75,5.75,0,0,1,62.3,9.55c.58-3.8,2.37-6.61,6.34-7.29,3.38-.57,5.85,1.05,7.57,4a6.57,6.57,0,0,1,7.32.86,7.53,7.53,0,0,1,2.78,6.72A18.76,18.76,0,0,1,88.42,16a6.32,6.32,0,0,1-3.2,9.49,3.84,3.84,0,0,1-1.17.15H56a6.35,6.35,0,0,1-6-5,6.87,6.87,0,0,1,4.67-8.41A19.6,19.6,0,0,1,56.66,12Zm27.9,2.82A6.21,6.21,0,0,0,82.4,8.16c-2.3-1.81-4.63-1.24-6.89.17-.37-.71-.67-1.36-1.05-2a5.44,5.44,0,0,0-6-2.51A6.14,6.14,0,0,0,64,9.21c-.06.72-.13,1.45-.2,2.21-1.25-.09-2.42-.61-3.66-.17a5.09,5.09,0,0,0-2.62,2.45h-.94a4.82,4.82,0,0,0-3.33,1.13,5.48,5.48,0,0,0-1.81,3.84,5.09,5.09,0,0,0,5,5.48H83.66A3.42,3.42,0,0,0,85,23.91a4.49,4.49,0,0,0,2.92-4.43,4.43,4.43,0,0,0-2.28-4.08C85.29,15.21,85,15,84.56,14.81Z"/><path class="cls-1" d="M66.63,33.14a6.33,6.33,0,0,0-1.21-5.7h1.89a7.9,7.9,0,0,1,1.09,4.68,23.29,23.29,0,0,1,2.17,2.4,6.31,6.31,0,0,1-3,9.27,5.11,5.11,0,0,1-1.68.32q-13.86,0-27.73,0A6.48,6.48,0,0,1,32,38.34h1.41A19.18,19.18,0,0,0,34.6,40.6a4.49,4.49,0,0,0,3.94,1.92c3.61-.05,7.23,0,10.84,0H65.62a4.38,4.38,0,0,0,4.32-4,4.81,4.81,0,0,0-2.7-5Z"/><path class="cls-1" d="M45,6.16c-.3-.53-.56-1-.83-1.51a5.64,5.64,0,0,0-5.82-3,6.07,6.07,0,0,0-4.78,4.77c-.13.65-.15,1.32-.22,2,0,.28,0,.56-.07.9-.36,0-.66-.07-1-.13A4.32,4.32,0,0,0,27,11.45a1.05,1.05,0,0,1-.16.2,5.51,5.51,0,0,0-3.33.46l-1.84-.63A6.37,6.37,0,0,1,26,9.94a5.9,5.9,0,0,1,5.72-2.5C32.28,3.7,34.1,1,38,.15a6.29,6.29,0,0,1,4.48.7,8.22,8.22,0,0,1,3.2,3.23,6.87,6.87,0,0,1,7.22.81,7.59,7.59,0,0,1,2.92,5.46l-1.58.26c-.08-.44-.14-.86-.23-1.27A5.46,5.46,0,0,0,48.65,5a9.7,9.7,0,0,0-2.73.69A5.92,5.92,0,0,0,45,6.16Z"/><path class="cls-1" d="M51.28,38.41l-1.21-.7.39-1.08L50,36l-1.28.14-.31-1.39,1.16-.47.06-.8-1-.74.71-1.21,1.07.39.66-.43L51,30.17l1.29-.32.47,1.08.86.17.79-1,1.12.72-.4,1.06.5.68,1.22-.09.42,1.3-1.17.48-.09.89.92.64L56.26,37l-1.08-.39-.65.47.16,1.25-1.41.29-.45-1.05L52,37.46Zm1.43-2.14a2.06,2.06,0,0,0,2.17-2.16,2,2,0,0,0-4.08,0A2,2,0,0,0,52.71,36.27Z"/><path class="cls-1" d="M42.57,16.12l-.67.51.17,1.21-1.41.3-.46-1.05L39.33,17l-.67.94-1.22-.7.4-1.08-.45-.64-1.28.14-.3-1.39L37,13.77,37,13l-1-.74L36.75,11l1.06.39.67-.42-.07-1.32,1.3-.31.46,1.18.86.06.8-1,1.11.7-.4,1.08.55.77L44.28,12l.3,1.3-1.07.47-.09.89.92.76-.71,1.22Zm-4.39-2.45a2.1,2.1,0,0,0,2.13,2.17,2.18,2.18,0,0,0,1.95-2.19,2.15,2.15,0,0,0-2.2-1.93A2.11,2.11,0,0,0,38.18,13.67Z"/><path class="cls-1" d="M48.38,21.42,49,22.86c-2.51,1.6-3.09,4.09-3,6.93-1.55-.26-3-.63-4.49.21l-.26-1.64A5.22,5.22,0,0,1,44.41,28,8.15,8.15,0,0,1,48.38,21.42Z"/><path class="cls-1" d="M38.29,23.6l-.2-1.55h6.8l-1,1.55Z"/><path class="cls-1" d="M20.5,22.41,21,23.49l.86.15.69-1,1.22.71-.4,1.07.5.68,1.25-.1.31,1.3-1.08.48-.12.88.94.67-.7,1.21-1.07-.39-.66.45.16,1.26-1.41.3L21,30.14,20.14,30l-.69,1-1.21-.7.39-1.09-.45-.64-1.28.15-.4-1.4,1.15-.45.16-.76-1-.79.71-1.21,1.08.39.67-.47-.07-1.28Zm.4,6.41A2,2,0,0,0,23,26.88a2,2,0,0,0-2.16-2.11A2.12,2.12,0,0,0,18.93,27,2,2,0,0,0,20.9,28.82Z"/><path class="cls-1" d="M70.26,11.45l.45,1.14.9.1.76-.92,1.21.62-.49,1.14.54.69L74.8,14l.41,1.41-1.16.47-.07.79.9.75-.7,1.21-1.06-.49-.67.55.16,1.16-1.41.41-.47-1.17-.8-.05-.73,1L68,19.37l.39-1.17-.45-.65-1.27.13-.3-1.28,1.17-.47.06-.9-1-.75.71-1.21,1.06.51.78-.57L69,11.86Zm.5,2.4a2,2,0,0,0-2,1.9,2,2,0,1,0,2-1.9Z"/><path class="cls-1" d="M53.51,34.35a.6.6,0,0,1-.67.59.64.64,0,0,1-.71-.64.69.69,0,0,1,.69-.73A.68.68,0,0,1,53.51,34.35Z"/><path class="cls-1" d="M40.89,13.81a.62.62,0,0,1-.65.64.66.66,0,0,1-.74-.67.67.67,0,0,1,.66-.7A.69.69,0,0,1,40.89,13.81Z"/><path class="cls-1" d="M21.07,26.12a.64.64,0,0,1,.6.67.66.66,0,0,1-.7.71.64.64,0,0,1-.68-.67A.7.7,0,0,1,21.07,26.12Z"/><path class="cls-1" d="M71.43,15.86a.65.65,0,0,1-.74.69.66.66,0,0,1-.64-.67.68.68,0,0,1,.74-.67A.6.6,0,0,1,71.43,15.86Z"/></g></g></g></svg>