<svg xmlns="http://www.w3.org/2000/svg" viewBox="0 0 76.74 87.15"><defs><style>.cls-1{fill:#0b202b;}</style></defs><g id="Capa_2" data-name="Capa 2"><g id="Capa_1-2" data-name="Capa 1"><g id="_9JmBWC" data-name="9JmBWC"><path class="cls-1" d="M39.05,87.15H37.6a10.46,10.46,0,0,1-1.86-.78c-1.16-.69-2.32-1.36-3.49-2L21.42,78.1,12.64,73C9.42,71.13,6.19,69.26,3,67.42A5.14,5.14,0,0,1,.34,64.69c-.13-.38-.23-.77-.34-1.16V23.62a.27.27,0,0,0,.1-.22,4.31,4.31,0,0,1,1-2.19,5.63,5.63,0,0,1,1.72-1.35c2.89-1.68,5.79-3.34,8.69-5l9.88-5.73q5.73-3.31,11.45-6.6C34.08,1.79,35.32,1,36.65.36,37,.17,37.48.18,37.86,0h.94A.27.27,0,0,0,39,.1a4.55,4.55,0,0,1,1.83.64l4.93,2.85,9.78,5.66,8.79,5.08,9.93,5.74a4.72,4.72,0,0,1,2.18,2.66c.17.49.12,1,.28,1.49V62.67c-.1.09-.08.21-.08.32A4.82,4.82,0,0,1,74,67.28c-3.41,2-6.8,3.92-10.2,5.88l-9.22,5.35C52,80,49.37,81.57,46.73,83S41.85,86.21,39.05,87.15ZM71.48,43.54c0-5.59,0-11.19,0-16.79a3.81,3.81,0,0,0-2-3.48c-1.72-1-3.44-2-5.16-3l-12.11-7Q46.34,9.91,40.48,6.5a4.08,4.08,0,0,0-3-.56,7,7,0,0,0-2,.91l-10.3,6-8.87,5.13q-4.57,2.66-9.17,5.29a4,4,0,0,0-2.09,3.69q0,16.64,0,33.26a4,4,0,0,0,2.19,3.76c1.88,1.06,3.74,2.15,5.6,3.23l9.72,5.61,7.62,4.41c2,1.17,4.06,2.36,6.11,3.52a3.77,3.77,0,0,0,3.89,0c1.87-1,3.72-2.12,5.57-3.19l12.8-7.42,10.86-6.27a3.85,3.85,0,0,0,2-3.49C71.5,54.74,71.48,49.14,71.48,43.54Z"/><path class="cls-1" d="M6.65,43.58c0-5.48,0-11,0-16.45a3,3,0,0,1,1.67-2.81c2.94-1.66,5.84-3.38,8.76-5.06l8.66-5L35.89,8.39c.39-.23.78-.46,1.18-.67a2.48,2.48,0,0,1,2.55,0c1.49.87,3,1.72,4.49,2.59L52.17,15q5.4,3.14,10.82,6.25c1.78,1,3.55,2.07,5.35,3.07A3,3,0,0,1,70,27.12q0,16.56,0,33.12a2.7,2.7,0,0,1-1.48,2.5c-3,1.69-5.89,3.4-8.83,5.1l-9.94,5.74c-2.57,1.48-5.12,3-7.7,4.44a23.83,23.83,0,0,1-3,1.64,2.16,2.16,0,0,1-2-.18q-6.51-3.74-13-7.5L9.56,63.57c-.42-.24-.82-.5-1.25-.72a2.82,2.82,0,0,1-1.67-2.77C6.66,54.58,6.65,49.08,6.65,43.58Zm4.73,4.35V41.36l2.89,4.32,2.84-4.24.11,0v6.39H18.9V38.46H17.1l-2.81,4.32-2.83-4.34H9.9l-.22,0v9.46Zm20.9-4.79a4.79,4.79,0,0,0-4.73-4.9,4.91,4.91,0,0,0-5.13,4.86,4.93,4.93,0,1,0,9.86,0ZM37.6,26.23H33.46c-.68,0-.81.13-.8.83a24.77,24.77,0,0,0,.51,4.63,11.08,11.08,0,0,0,1.89,4.6.77.77,0,0,0,.65.4h3.71a.71.71,0,0,0,.59-.27,8.33,8.33,0,0,0,1.11-1.86,20.11,20.11,0,0,0,1.37-7.64c0-.53-.15-.68-.67-.68ZM53.34,42.32H48.93V38.48H47.25v9.39a11.13,11.13,0,0,0,1.73,0V44h4.37v3.9a13.73,13.73,0,0,0,1.7,0V38.47H53.34Zm8.91-4c-1.38,3.16-2.75,6.3-4.15,9.49a12,12,0,0,0,1.8,0l1-2.19h4.33l.93,2.2a14,14,0,0,0,1.83,0l-4.13-9.44a3.29,3.29,0,0,0-.38,0Zm5.93,12.4H8.55a.7.7,0,0,0,0,.55H68.21A1,1,0,0,0,68.18,50.77Zm-25.3-5.52a6.48,6.48,0,0,1-1.53,1,2.74,2.74,0,0,1-1.83.06,3.17,3.17,0,0,1-1.55-1,3.55,3.55,0,0,1,0-4.4,3.09,3.09,0,0,1,1.92-1.08,3.65,3.65,0,0,1,3,1.18L44,39.79c-1-1.38-3.42-1.92-5.4-1.27a4.78,4.78,0,0,0-3.2,4.7,4.72,4.72,0,0,0,3.45,4.64A4.86,4.86,0,0,0,44,46.32Zm-.13-11.51H68.18a.66.66,0,0,0,0-.57H42.82A1.18,1.18,0,0,0,42.75,33.74Zm-10.36-.57H8.54a.77.77,0,0,0,0,.56H32.45A1,1,0,0,0,32.39,33.17Zm6.07-7.83a1.84,1.84,0,0,0,.88-2.44,5.11,5.11,0,0,1-.9-2.35,2.12,2.12,0,0,0-.62,3.07A3.75,3.75,0,0,1,38.46,25.34Zm-1.94-3c-.43.43-.8.88-.59,1.53a7.18,7.18,0,0,1,.66,1.67,1.3,1.3,0,0,0,.48-1.91A3.16,3.16,0,0,1,36.52,22.32Z"/><path class="cls-1" d="M30.42,43.11a3.19,3.19,0,0,1-3.23,3.33,3.14,3.14,0,0,1-2.7-2,3.42,3.42,0,0,1,1.07-4,3,3,0,0,1,4.76,1.93A1.78,1.78,0,0,1,30.42,43.11Z"/><path class="cls-1" d="M37.65,27.8h2.93c.41,0,.58.2.56.57a15,15,0,0,1-1.07,5.5s0,0,0,0c-.36.87-.84,1.5-1.95,1.3a8,8,0,0,0-1.7,0,.68.68,0,0,1-.64-.34,9.22,9.22,0,0,1-1.37-3.79,20.38,20.38,0,0,1-.25-2.7c0-.48.13-.58.61-.58ZM35,31.91a6.77,6.77,0,0,0,1.16,2.64.4.4,0,0,0,.37.18h2.25a.48.48,0,0,0,.41-.19,7.41,7.41,0,0,0,1.35-3.64A5,5,0,0,1,36.6,32C36.07,32,35.53,31.94,35,31.91Z"/><path class="cls-1" d="M64.55,44.13h-3L63,40.54Z"/></g></g></g></svg>