<svg xmlns="http://www.w3.org/2000/svg" viewBox="0 0 69.36 76.93"><defs><style>.cls-1{fill:#0b202b;}</style></defs><g id="Capa_2" data-name="Capa 2"><g id="Capa_1-2" data-name="Capa 1"><g id="tEMkGY.tif"><path class="cls-1" d="M32.05,0h5.1c.11.25.34.19.53.19a68.11,68.11,0,0,1,7.81.62A97.39,97.39,0,0,1,61,4a10.49,10.49,0,0,1,5.21,3.67A12.12,12.12,0,0,1,68.81,15c.12,2.52.31,5,.45,7.53A59.66,59.66,0,0,1,67.85,39.2,51,51,0,0,1,55.3,62.92a57.45,57.45,0,0,1-19.6,13.8,2.4,2.4,0,0,1-2,0,54.61,54.61,0,0,1-10-5.56C10,61.53,2,48.56.36,31.85A6.46,6.46,0,0,0,0,29.2V21.85c.37-.25.19-.62.2-.93a60,60,0,0,1,.69-7.71A11.11,11.11,0,0,1,9.48,3.68,101.4,101.4,0,0,1,28.26.35,13.44,13.44,0,0,0,32.05,0ZM63.4,24.79c0-1.6.05-3.2,0-4.79s-.21-3.26-.35-4.88c-.27-3.26-1.82-5.11-4.95-5.92C48.68,6.78,39.18,5.38,29.43,6.1a99.2,99.2,0,0,0-19,3.37A5.17,5.17,0,0,0,6.51,14c-.12.84-.18,1.69-.25,2.54-.46,5.94-.71,11.89.29,17.8C9.38,51.14,19,62.78,34,70.35a1.59,1.59,0,0,0,1.54,0,48.66,48.66,0,0,0,21-18.58A47.82,47.82,0,0,0,63.4,24.79Z"/><path class="cls-1" d="M32.79,55.93c-4.56-4-8-8.66-9.2-14.68a28.21,28.21,0,0,1,1.79-16.18A36.9,36.9,0,0,1,33.8,12.41c.66-.66,1.09-.66,1.74,0,5.83,5.93,9.65,12.87,10.54,21.24s-2.23,15.44-8.33,21.2c-.37.35-.77.66-1.16,1l-1.8-5.21-.21,0C34,52.42,33.38,54.18,32.79,55.93Z"/><path class="cls-1" d="M32.79,55.93c.59-1.75,1.19-3.51,1.79-5.26l.21,0,1.8,5.21v5.74h-3.8Z"/></g></g></g></svg>