<svg xmlns="http://www.w3.org/2000/svg" viewBox="0 0 56.88 56.88"><defs><style>.cls-1{fill:#0b202b;}</style></defs><g id="Capa_2" data-name="Capa 2"><g id="Capa_1-2" data-name="Capa 1"><g id="hvFTHk.tif"><path class="cls-1" d="M0,5.6C0,4.54,0,3.53,0,2.52A2.8,2.8,0,0,1,2.94,0C5,0,7.14,0,9.24,0H20.36a2.57,2.57,0,0,1,.82.14,61,61,0,0,1,21.29,13.3A60.47,60.47,0,0,1,56.73,34.32a2.07,2.07,0,0,1,.15.73V53.89a2.8,2.8,0,0,1-3,3H51.68c-.35-14.12-5.36-26.26-15.38-36.17S14.1,5.94,0,5.6Z"/><path class="cls-1" d="M43.12,56.86H33.59a33.14,33.14,0,0,0-10-23.44A33.65,33.65,0,0,0,0,23.56V14.32a42.9,42.9,0,0,1,28.3,10.6A42.16,42.16,0,0,1,43.12,56.86Z"/><path class="cls-1" d="M25.12,56.88H3a2.79,2.79,0,0,1-3-3V32.29a24.65,24.65,0,0,1,16.06,5.82A24.66,24.66,0,0,1,25.12,56.88Z"/><path class="cls-1" d="M39.79,0h14a2.87,2.87,0,0,1,3.12,3.14V16.68l-.1.05A64.94,64.94,0,0,0,39.74.1Z"/></g></g></g></svg>