<svg xmlns="http://www.w3.org/2000/svg" viewBox="0 0 79.14 77.69"><defs><style>.cls-1{fill:#0b202b;}</style></defs><g id="Capa_2" data-name="Capa 2"><g id="Capa_1-2" data-name="Capa 1"><g id="lo9ste.tif"><path class="cls-1" d="M5.19,0A20.93,20.93,0,0,1,12,2.44a13.51,13.51,0,0,1,2.94,2,3.1,3.1,0,0,0,2.25.9A22.77,22.77,0,0,1,29.08,8.93,55.14,55.14,0,0,1,47.82,27.78a61.52,61.52,0,0,1,3.09,6.95c1.66,3.82,3.59,7.51,5.36,11.28A4.51,4.51,0,0,0,59,48.46,46.71,46.71,0,0,1,74,58.11,24.67,24.67,0,0,1,76.47,61c.07.08.06.23.11.44-3.74,1.42-7.83,1.16-11.58,2.66a2.65,2.65,0,0,0,1,1.45,13.28,13.28,0,0,0,2.94,2,24.43,24.43,0,0,1,7.7,6.6,8,8,0,0,0,1.13,1.13,4.9,4.9,0,0,1,1.38,2.35,8.67,8.67,0,0,1-1.59-1.33A34,34,0,0,0,70,71.81a24.94,24.94,0,0,1-6.31-4.09,11,11,0,0,1-3.19-4.58c-.23-.56.23-.81.62-.94a30.29,30.29,0,0,1,6.75-1.79c1.5-.13,3-.17,4.5-.17a.92.92,0,0,0,.61-.12,1.43,1.43,0,0,0-.72-1c-2.92-2-5.69-4.2-8.79-5.89a23.93,23.93,0,0,0-5.71-2.07,6.44,6.44,0,0,1-4.36-3.48c-1.51-2.83-2.67-5.81-4.08-8.68-1.15-2.35-2.12-4.78-3.17-7.17a42.06,42.06,0,0,0-8-11.74A43.53,43.53,0,0,0,22.8,9.21a12,12,0,0,0-4.13-1C17.45,8.2,16.24,8.09,15,8a2.37,2.37,0,0,1-1.54-.74c-2.21-2.08-5-3.14-7.71-4.2a3.1,3.1,0,0,0-2.08-.22A1.63,1.63,0,0,0,2.5,5,7.8,7.8,0,0,0,3.92,7.75c.57.75,1.13,1.5,1.74,2.22,2.58,3,3.91,6.67,5,10.43a22.52,22.52,0,0,0,2.22,5.32,9.21,9.21,0,0,0,1.95,2.52,3,3,0,0,1,.93,3.24c-.43,1.73-1.3,3.31-1.66,5.06a22.63,22.63,0,0,0,1.29,14.31,5.34,5.34,0,0,0,1.34,2,1.76,1.76,0,0,0,1.43.55c.16-1.34.33-2.64.47-3.95a11.68,11.68,0,0,1,3.68-7.83c3.1,7.8,6.87,15.15,12.77,21-.26-.06-.34,0-.8-.51-1.89-2-4.11-3.56-6.09-5.42a22.61,22.61,0,0,1-5.12-7.49c-.17-.39-.37-.76-.56-1.13h-.22c-.17.84-.35,1.69-.49,2.54s-.26,2-.47,3c-.58,2.69-3.12,3.59-5.29,1.89a10.46,10.46,0,0,1-3-4.15,23.62,23.62,0,0,1-1.79-10A33.64,33.64,0,0,1,13.07,32a2.52,2.52,0,0,0-.68-2.88,18.13,18.13,0,0,1-3.17-5.7,61.09,61.09,0,0,1-2.39-7,7.39,7.39,0,0,0-1.25-2.51c-.73-1-1.45-2-2.23-3A14.84,14.84,0,0,1,0,5V4A8.87,8.87,0,0,1,1,1.76,4.77,4.77,0,0,1,4.12,0Z"/><path class="cls-1" d="M15.89,13.7c1.92-.68,3-.11,3.76,1.29a2.47,2.47,0,0,1-.78,3.43A14.69,14.69,0,0,0,15.89,13.7Z"/></g></g></g></svg>