<svg xmlns="http://www.w3.org/2000/svg" viewBox="0 0 96.2 55.3"><defs><style>.cls-1{fill:#0b202b;}</style></defs><g id="Capa_2" data-name="Capa 2"><g id="Capa_1-2" data-name="Capa 1"><path class="cls-1" d="M24.42,39.58H41V41H22.75V14.08H40.84c0,.43,0,.91,0,1.42H24.43V26.24H39.89v1.49H24.42Z"/><path class="cls-1" d="M72.19.75c-.07.28-.06.43-.14.5a18.11,18.11,0,0,0-1.58,2.21c-.59.76-1.13,1.57-1.68,2.36-.43.62-.85,1.25-1.29,1.87-.72,1-1.32,2.06-2.1,3-.44.53-.79,1.15-1.19,1.72-.72,1-1.36,2.11-2.15,3.09-.44.54-.78,1.16-1.19,1.73-.86,1.21-1.66,2.46-2.53,3.67s-1.7,2.37-2.48,3.6c-.53.84-1.18,1.59-1.72,2.55a3.74,3.74,0,0,0,.35.69c1,1.3,1.92,2.65,2.89,4l2.77,3.77c.69.93,1.35,1.9,2,2.85.55.79,1.12,1.59,1.73,2.35a2,2,0,0,1,.15.32l-.93,0h-.87a11,11,0,0,1-1.59-2c-.61-.78-1.14-1.62-1.73-2.42-.71-1-1.48-1.91-2.14-2.91-.51-.78-1.07-1.52-1.59-2.29-.7-1-1.48-2-2.26-3L43.76,41h-2c.82-1.08,1.65-2,2.33-3.12s1.43-1.83,2-2.86a14,14,0,0,1,1.29-1.69l2.21-3c.6-.83,1.19-1.67,1.78-2.5.18-.26.34-.53.53-.82-.56-.78-1.08-1.52-1.61-2.25s-1.11-1.45-1.62-2.2S47.5,21,46.91,20.2,45.83,18.73,45.3,18s-1.15-1.63-1.72-2.44c-.34-.47-.69-1-1.07-1.49l1,0h1c1,1.54,2.09,2.91,3.08,4.39.86,1.3,1.88,2.49,2.79,3.75.69.95,1.31,1.93,2,2.88a4.18,4.18,0,0,0,.63.64,9.55,9.55,0,0,0,.75-.91c.54-.81,1.18-1.55,1.75-2.34s1.09-1.58,1.66-2.36,1.23-1.58,1.8-2.4c.74-1.06,1.6-2,2.28-3.13a11.2,11.2,0,0,1,.8-1.05,38.65,38.65,0,0,0,2.56-3.29,9.2,9.2,0,0,1,.85-1c.71-.79,1.32-1.66,2-2.5.52-.68,1.09-1.33,1.61-2,.79-1.07,1.72-2,2.43-3.16A5.65,5.65,0,0,1,72.19.75Z"/><path class="cls-1" d="M29.2,54.65A10.56,10.56,0,0,1,27.93,53c-.41-.55-.83-1.08-1.24-1.62a15.64,15.64,0,0,1-1.29-1.68A17.53,17.53,0,0,0,24.17,48l-1.86-2.48c-.69-.91-1.33-1.87-2-2.74-1.16-1.39-2.06-2.95-3.18-4.34-.43-.55-.79-1.16-1.18-1.73-.85-1.22-1.61-2.5-2.54-3.67-.56-.7-1-1.5-1.52-2.23-.85-1.22-1.6-2.51-2.54-3.67a13.54,13.54,0,0,1-1.18-1.73c-.41-.74-.94-1.4-1.4-2.1a17.4,17.4,0,0,0-1.47-2.08,17.31,17.31,0,0,1-1.13-1.66l-2-2.95a5.51,5.51,0,0,1-.28-.56v.8c-.07,4.73-.14,9.45-.18,14.17,0,3.05,0,6.1,0,9.16V41H0v-27H2.11l4,5.89C7,21.24,7.8,22.56,8.71,23.84s1.58,2.3,2.35,3.46c1,1.57,2.06,3.16,3.1,4.73.92,1.38,1.88,2.73,2.81,4.11.75,1.1,1.49,2.22,2.22,3.33,1.43,2.15,2.83,4.32,4.28,6.46.88,1.3,1.68,2.65,2.62,3.9,1.09,1.45,2,3.05,3.1,4.46C29.24,54.35,29.2,54.47,29.2,54.65Z"/><path class="cls-1" d="M85.43,14.07V15.5H76V41H74.4s0,0,0,0a.19.19,0,0,1,0-.08V15.52H65.48c-.27,0-.57.07-.74-.28V14.07Z"/><path class="cls-1" d="M93,34.33h0a.59.59,0,0,0-.17.42h0a.61.61,0,0,0,.33.53,4,4,0,0,0,.47.22c.3.11.61.13.94.22a2.79,2.79,0,0,1,.86.35l.13.09a1.52,1.52,0,0,1,.6,1.22h0v.33a1.36,1.36,0,0,1-.26.83,2.11,2.11,0,0,1-1.23.67,3,3,0,0,1-2-.19,1.61,1.61,0,0,1-.64-.7l-.37-.74.88,0,.25.28a1.63,1.63,0,0,0,1.21.58,1.38,1.38,0,0,0,1-.31c.28-.25.24-.41.24-.71h0a.29.29,0,0,0,0-.16c-.3-.5-.88-.56-1.42-.68a3.45,3.45,0,0,1-1.45-.59c-.31-.13-.38-.59-.39-.6a1.93,1.93,0,0,1,1.62-2.2l.24,0a2.89,2.89,0,0,1,.39,0,2.11,2.11,0,0,1,1,.26,2.15,2.15,0,0,1,1,1.37l-.88.07A1.32,1.32,0,0,0,93.63,34,1.29,1.29,0,0,0,93,34.33Z"/><path class="cls-1" d="M87.31,38.57a1.72,1.72,0,0,1-.41-1l.89,0,.17.27a1,1,0,0,0,.81.45h0a1,1,0,0,0,.81-.44h0a1,1,0,0,0,.15-.5v-4h.9c0,1.44,0,2.89,0,4.32a1.68,1.68,0,0,1-1.7,1.58H88.8A2,2,0,0,1,87.31,38.57Z"/><path class="cls-1" d="M72.12.91a.47.47,0,0,1,.37-.56A.45.45,0,0,1,72.12.91Z"/><path class="cls-1" d="M29.2,54.56a.46.46,0,0,1,.37.56A.46.46,0,0,1,29.2,54.56Z"/><path class="cls-1" d="M72.66.15,72.79,0l.06.06L72.7.19Z"/><path class="cls-1" d="M72.49.35l.19-.18Z"/><path class="cls-1" d="M29.75,55.3l-.18-.18Z"/><circle class="cls-1" cx="85.44" cy="38.54" r="0.65"/></g></g></svg>