<svg xmlns="http://www.w3.org/2000/svg" viewBox="0 0 63.13 72.72"><defs><style>.cls-1{fill:#0b202b;}</style></defs><g id="Capa_2" data-name="Capa 2"><g id="Capa_1-2" data-name="Capa 1"><g id="GibxsH.tif"><path class="cls-1" d="M63.13,54.6,31.58,72.72,0,54.59V18.13L31.58,0,63.13,18.12Zm-22-14.89L31.3,28.77c-2.83-3.16-5.61-6.36-8.49-9.46a6.52,6.52,0,0,0-7.09-1.7c-2.15.67-2.9,2.54-2.91,4.68q0,13.7,0,27.4a5.46,5.46,0,0,0,.48,2.44,4.42,4.42,0,0,0,5.08,2.4,4.58,4.58,0,0,0,3.38-4.7c0-5.26,0-10.51,0-15.77a2.83,2.83,0,0,1,.29-1.89c1.51,1.67,3,3.28,4.43,4.91,4.53,5.08,9,10.17,13.58,15.24a6.94,6.94,0,0,0,7.31,2.08c2.63-1,3-3.31,3-5.76q0-12.72,0-25.43A8.53,8.53,0,0,0,49.93,20a4.37,4.37,0,0,0-5-2.63,4.51,4.51,0,0,0-3.6,4.69c0,5.25,0,10.51,0,15.76A2.81,2.81,0,0,1,41.09,39.71Z"/></g></g></g></svg>