<svg xmlns="http://www.w3.org/2000/svg" viewBox="0 0 74.29 86.65"><defs><style>.cls-1{fill:#0b202b;}</style></defs><g id="Capa_2" data-name="Capa 2"><g id="Capa_1-2" data-name="Capa 1"><g id="dqYDLC"><path class="cls-1" d="M36.44,86.65A7.94,7.94,0,0,1,34,85.78L30.24,83.5l-6.49-4A3.91,3.91,0,0,1,23,79c-.34-.35-.32-.57.12-.77s1.09-.43,1.63-.65a20.62,20.62,0,0,0,3.18-1.69,1.05,1.05,0,0,1,1.22,0L35,79.36c.5.3,1,.58,1.51.89a1.1,1.1,0,0,0,1.27,0q7.64-4.56,15.29-9.1,7-4.17,14.07-8.34a1.69,1.69,0,0,0,.95-1.65q0-17.68,0-35.35a1.36,1.36,0,0,0-.72-1.29Q57,18.18,46.58,11.83C43.73,10.09,40.87,8.37,38,6.6a1.47,1.47,0,0,0-1.76,0Q24.46,13.85,12.64,21.05c-1.92,1.17-3.85,2.36-5.78,3.52a1.22,1.22,0,0,0-.64,1.15q0,17.88,0,35.75a1.22,1.22,0,0,0,.67,1.14q3.68,2.2,7.36,4.4a7.23,7.23,0,0,0,3.31,1.07,3.67,3.67,0,0,0,4.13-3.83q0-17.58,0-35.17c0-.92.27-1.19,1.21-1.19h3.88c.74,0,1.09.34,1.09,1.06,0,11.91,0,23.83,0,35.74a9.9,9.9,0,0,1-2.13,6.42A8.14,8.14,0,0,1,21,73.92a12.65,12.65,0,0,1-8.7-1.19c-2.11-1.07-4.08-2.36-6.11-3.54-1.17-.68-2.35-1.33-3.45-2.11A6.31,6.31,0,0,1,.11,62.56,39.11,39.11,0,0,1,0,58.37c0-3.15,0-6.31,0-9.46V30.36C0,28.51,0,26.65,0,24.8a6.56,6.56,0,0,1,3.33-5.62L24.79,6.36c3-1.82,6.07-3.66,9.14-5.43a6.14,6.14,0,0,1,6.56,0q10.86,6.45,21.69,13l8.71,5.21a6.69,6.69,0,0,1,3.37,6.08q0,4.64,0,9.28V53.06c0,2.91.06,5.83,0,8.74A6.42,6.42,0,0,1,71,67.45Q58.32,75.05,45.6,82.62c-1.63,1-3.27,1.95-4.9,2.94a6.54,6.54,0,0,1-2.82,1,.41.41,0,0,0-.11.07Z"/><path class="cls-1" d="M57.79,37.17H56c-.68,0-.93-.18-1.12-.87A4.94,4.94,0,0,0,52.23,33a10.47,10.47,0,0,0-3.11-.84A28.54,28.54,0,0,0,44.23,32a11.33,11.33,0,0,0-4.69,1,3.65,3.65,0,0,0-1.91,4.46A2.16,2.16,0,0,0,39,38.76a15.47,15.47,0,0,0,3.88,1c2.86.48,5.73.87,8.59,1.35A20.94,20.94,0,0,1,57.67,43a7.27,7.27,0,0,1,4.15,6.15,11.06,11.06,0,0,1-1.11,6.36,10.84,10.84,0,0,1-6,5,20.64,20.64,0,0,1-6,1.25,30.38,30.38,0,0,1-6.25-.19,16.08,16.08,0,0,1-8.27-3.2,9.7,9.7,0,0,1-3.59-6.16,10.88,10.88,0,0,1-.16-1.71.92.92,0,0,1,1-1h3.66a.89.89,0,0,1,1,.85,7.56,7.56,0,0,0,1,2.87,6.26,6.26,0,0,0,4,2.53,24.17,24.17,0,0,0,7.05.49A14.69,14.69,0,0,0,52,55.63a4.82,4.82,0,0,0,3.58-3.57,4.94,4.94,0,0,0,0-2.23,2.37,2.37,0,0,0-1.11-1.48,9.26,9.26,0,0,0-3.14-1.18,61.71,61.71,0,0,0-6.77-1,31.17,31.17,0,0,1-7.34-1.49A8.41,8.41,0,0,1,32.43,41a9.38,9.38,0,0,1-1-5.41,8.76,8.76,0,0,1,1.23-3.9,9.84,9.84,0,0,1,5.06-4,21.34,21.34,0,0,1,8.12-1.24,25,25,0,0,1,8,1.16,9.81,9.81,0,0,1,5.43,4,9.45,9.45,0,0,1,1.39,4.62c0,.65-.34,1-1,1Z"/></g></g></g></svg>