<svg xmlns="http://www.w3.org/2000/svg" viewBox="0 0 79.4 79.5"><defs><style>.cls-1{fill:#0b202b;}</style></defs><g id="Capa_2" data-name="Capa 2"><g id="Capa_1-2" data-name="Capa 1"><g id="Hteprp"><path class="cls-1" d="M23.81,17.71c.9-4.13,2.16-7.83,4.65-11C32.86,1.22,38.83-.47,45.54.13,54.86,1,60.15,6.76,63.27,15.05c.22.6.22.89-.53.93-4.71.27-7.33,5.15-7.16,9,.22,5.13,2,9.77,4.23,14.3,1.09,2.25,2.41,4.39,3.35,6.73.37.92.15,1.24-.62,1.65a17.23,17.23,0,0,0-4.9,3.44,7.47,7.47,0,0,0-2,5.21c0,5,.08,10,0,14.92-.05,3-1,5.59-3.73,7.18-4,2.37-8.52.69-10.47-4a20,20,0,0,1-1.67-8c0-4.79,0-9.58,0-14.38,0-2.69-.33-3.31-2.87-4.07-1.14-.34-1-.83-.67-1.65a35.37,35.37,0,0,0,3.39-12.17A44.55,44.55,0,0,0,38.3,19.84c-.83-3.13-3-4.33-7.71-3.84A31.51,31.51,0,0,0,23.81,17.71Z"/><path class="cls-1" d="M27.77,1.73A26.52,26.52,0,0,0,21.64,11c-1.94,4.66-2,9.47-1.53,14.37a34.06,34.06,0,0,1-.25,8.32c-.71,4.82,2.28,11,6.53,13.43.42.25.85.49,1.41.8a13.37,13.37,0,0,1-4.09,1.92,12,12,0,0,0-4.09,1.82,4.5,4.5,0,0,0-.94,6.72c.65.85.42,1-.45,1.13A6.73,6.73,0,0,1,13,57.56a21.78,21.78,0,0,1-5.34-7.38A79.31,79.31,0,0,1,.05,20.62,20.22,20.22,0,0,1,3,8.05C7.2,1.64,13.41-.48,20.75.13A27.57,27.57,0,0,1,27.77,1.73Z"/><path class="cls-1" d="M68.35,46.73a10.15,10.15,0,0,1-2.26-3.89,1.8,1.8,0,0,1,.09-1.33c1.33-4,2.14-8,1.28-12.22a14.78,14.78,0,0,1,.06-4.5c1-9.75-1.82-18-9.74-24.14a.43.43,0,0,1-.23-.54A23.63,23.63,0,0,1,69,1.84a22.76,22.76,0,0,1,8,5.68,8.37,8.37,0,0,1,2.48,5.63C79.56,23,77.93,32.39,73,41A21.92,21.92,0,0,1,68.35,46.73Z"/><path class="cls-1" d="M34.78,22.38a6.12,6.12,0,0,0-4-.5c-1,.29-1.18.84-.72,1.73,1.06,2.09,2.76,2.53,5.14,1.17a50.15,50.15,0,0,1,.48,8.27,33.13,33.13,0,0,1-2.9,11.32c-.35.85-.72.94-1.53.68-5.19-1.63-8.09-6.15-7.42-11.73a46.72,46.72,0,0,0,0-10.1c-.08-.87.09-1.33.93-1.63a20.76,20.76,0,0,1,7.55-1.67C34.42,20,34.48,20.12,34.78,22.38Z"/><path class="cls-1" d="M30.11,57.91a25.2,25.2,0,0,1-6.82-1.07c-.69-.2-1.52-.49-1.57-1.32s.75-1.09,1.4-1.29a37.43,37.43,0,0,0,7.72-3.33c.86-.5,1.75.14,2.62.32,2.36.47,2.35.49,2.34,2.85s-.35,2.74-2.58,3.4A10.88,10.88,0,0,1,30.11,57.91Z"/><path class="cls-1" d="M59.7,56.48a3.26,3.26,0,0,1,1.36-3.15,12.05,12.05,0,0,1,8.15-3.2c.85,0,1.71-.29,2.56-.32,1.16-.05,1.47.49.94,1.54A7.57,7.57,0,0,1,70.1,54.1a25.09,25.09,0,0,1-8.88,3.7C60,58.06,59.32,57.84,59.7,56.48Z"/><path class="cls-1" d="M63.22,37.2a36,36,0,0,1-3.49-10.28c-.12-.7-.07-1.22.81-1.35a2.82,2.82,0,0,0,1.4-.81A1.81,1.81,0,0,0,62.72,23c-.16-.73-.79-.93-1.43-1.08-.24-.06-.61.08-.7-.26s.27-.54.45-.78a1.94,1.94,0,0,1,.31-.26c1.43-1,2-.78,2.34.9a11.73,11.73,0,0,1-.19,3.65,29,29,0,0,0,.26,6.52A10.74,10.74,0,0,1,63.22,37.2Z"/></g></g></g></svg>