<svg xmlns="http://www.w3.org/2000/svg" viewBox="0 0 66.85 75.56"><defs><style>.cls-1{fill:#0b202b;}</style></defs><g id="Capa_2" data-name="Capa 2"><g id="Capa_1-2" data-name="Capa 1"><path class="cls-1" d="M0,16.74v42a1.56,1.56,0,0,1,.2.16l1.32,1.46,6.06,7,15.27,8.18H43.74l14.88-7.73,1.82-2.06,6.22-6.84a.66.66,0,0,0,.19-.49q0-20.71,0-41.42a.66.66,0,0,0-.19-.48l-8-8.79a1.31,1.31,0,0,0-.34-.27L43.87.2a1,1,0,0,0-.3,0H39.36L23,0,6.62,7.48,0,16.74Zm58.32-6.55V65l-1,1.15-13.44,7V2.54ZM23,2.29v71L8.91,65.72,8.32,65V9Z"/></g></g></svg>