<svg xmlns="http://www.w3.org/2000/svg" viewBox="0 0 82.16 73.1"><defs><style>.cls-1{fill:#0b202b;}</style></defs><g id="Capa_2" data-name="Capa 2"><g id="Capa_1-2" data-name="Capa 1"><g id="l8eSOo.tif"><path class="cls-1" d="M56.62,0h2.11a.62.62,0,0,0,.2.1,7,7,0,0,1,5.53,4.06,16.93,16.93,0,0,1,1.67,7.26A42,42,0,0,1,65,22.25c-.09.42,0,.57.41.7a46.68,46.68,0,0,1,7,2.76,25,25,0,0,1,7,4.88c3.57,3.71,3.68,7.72.31,11.61a19.18,19.18,0,0,1-4.28,3.54,41.22,41.22,0,0,1-9.77,4.38c-.48.15-.64.32-.52.86a41,41,0,0,1,1.11,10.7A18.66,18.66,0,0,1,65,68c-1.62,4-4.83,5.67-9,4.88A22,22,0,0,1,48.9,70a43.48,43.48,0,0,1-7.29-5.51c-.35-.32-.56-.29-.86,0s-.78.72-1.18,1.06A35.57,35.57,0,0,1,29.48,72a13.21,13.21,0,0,1-5.31,1c-3.25-.1-5.35-1.82-6.65-4.67a18,18,0,0,1-1.42-7.2,42.5,42.5,0,0,1,1.11-10.3c.1-.43,0-.62-.42-.76-1-.32-2.08-.67-3.1-1.07a30.6,30.6,0,0,1-10.2-5.91A10.56,10.56,0,0,1,.3,38.28,4.29,4.29,0,0,0,0,37.11V35.94c.13-.06.12-.19.14-.3A9,9,0,0,1,2.3,31.21a21.85,21.85,0,0,1,6.55-5A43.69,43.69,0,0,1,16.7,23c.34-.1.58-.18.47-.67A44.29,44.29,0,0,1,16,14.38a22.09,22.09,0,0,1,1.12-9C18.65,1.41,21.73-.39,25.89.2a19.24,19.24,0,0,1,6.69,2.44,41.86,41.86,0,0,1,8.06,5.95c.34.31.54.33.9,0a44.65,44.65,0,0,1,5.25-4.24A26.07,26.07,0,0,1,54.87.4,11.67,11.67,0,0,0,56.62,0ZM41.06,49.93c2.39,0,4.77-.1,7.15-.26a.88.88,0,0,0,.75-.45A90.81,90.81,0,0,0,56,37a.78.78,0,0,0,0-.77,90.55,90.55,0,0,0-7.13-12.33.79.79,0,0,0-.62-.37A96.83,96.83,0,0,0,34,23.5a.84.84,0,0,0-.68.38,92.37,92.37,0,0,0-7.1,12.36.81.81,0,0,0,0,.77,89.82,89.82,0,0,0,7.1,12.28.79.79,0,0,0,.67.39C36.36,49.82,38.7,50,41.06,49.93ZM78.47,36.51a4.2,4.2,0,0,0-.58-1.79A10.77,10.77,0,0,0,75,31.66a35.65,35.65,0,0,0-10.62-5.14c-.35-.11-.43,0-.52.31a77.53,77.53,0,0,1-3.44,9.35.79.79,0,0,0,0,.67,76.24,76.24,0,0,1,3.49,9.4c.11.37.27.44.63.32a43.06,43.06,0,0,0,7.09-2.94,18.24,18.24,0,0,0,5.58-4.24A4.79,4.79,0,0,0,78.47,36.51Zm-16-23.91c-.05-.81,0-1.95-.21-3.07a10.58,10.58,0,0,0-1.33-4.1,3.25,3.25,0,0,0-2.34-1.6,7.55,7.55,0,0,0-3.74.47C50.64,5.76,47.24,8.45,44,11.36c-.24.21-.15.35,0,.53a79.39,79.39,0,0,1,6.49,7.8A.71.71,0,0,0,51,20a82.89,82.89,0,0,1,9.88,1.69c.33.08.45,0,.52-.34A44.56,44.56,0,0,0,62.45,12.6ZM19.82,60.2A21.71,21.71,0,0,0,20,63.42a10.51,10.51,0,0,0,1.41,4.38,3.2,3.2,0,0,0,2.32,1.52,8.73,8.73,0,0,0,4.62-.82,34.64,34.64,0,0,0,9.87-6.67c.32-.29.14-.44-.06-.66a80.11,80.11,0,0,1-6.3-7.58,1,1,0,0,0-.81-.47,75.66,75.66,0,0,1-9.59-1.65c-.39-.09-.57,0-.65.41A40.92,40.92,0,0,0,19.82,60.2Zm2.1-23.59c-.07-.2-.13-.38-.21-.56a73.15,73.15,0,0,1-3.38-9.18c-.11-.39-.28-.42-.62-.31a38.94,38.94,0,0,0-8.81,4,13.88,13.88,0,0,0-4.31,3.83,3.54,3.54,0,0,0,0,4.46,10.78,10.78,0,0,0,2.17,2.3,34.5,34.5,0,0,0,11.07,5.51c.44.15.48-.15.57-.43a77.07,77.07,0,0,1,3.33-9.08C21.8,36.94,21.85,36.77,21.92,36.61ZM62.5,60.28a41.51,41.51,0,0,0-1-8.37c-.11-.51-.33-.55-.77-.44a69.5,69.5,0,0,1-9.06,1.58,1.93,1.93,0,0,0-1.52.87,67.32,67.32,0,0,1-5.93,7.13c-.38.4-.3.59.07.91a44.62,44.62,0,0,0,5.27,4.11A18.85,18.85,0,0,0,57,69.25a3.68,3.68,0,0,0,4.45-2.36c.1-.21.19-.43.27-.65A18,18,0,0,0,62.5,60.28ZM24.85,3.84c-2.17,0-3.13.59-3.94,2.25a10,10,0,0,0-.83,2.68c-.75,4.26-.17,8.45.7,12.62.08.37.28.37.56.3A76.58,76.58,0,0,1,31.1,20a.74.74,0,0,0,.6-.29,73.44,73.44,0,0,1,6.43-7.77c.21-.23.25-.39,0-.62A36.86,36.86,0,0,0,29.2,5.09,11.49,11.49,0,0,0,24.85,3.84ZM45.7,19.58a65.55,65.55,0,0,0-4.4-5.11c-.27-.28-.4-.05-.56.12-1.09,1.14-2.12,2.34-3.13,3.56-.36.44-.7.9-1.1,1.42C39.61,19.45,42.59,19.45,45.7,19.58Zm0,34a85.74,85.74,0,0,1-9.21,0c1.44,1.87,2.9,3.52,4.41,5.13.24.25.37.07.51-.09.62-.68,1.26-1.34,1.86-2C44.11,55.61,44.92,54.67,45.73,53.54Zm7.91-4.64a.89.89,0,0,0,.59.05c1.89-.31,3.76-.67,5.63-1.09.45-.11.56-.23.42-.7-.59-1.86-1.22-3.71-1.93-5.53-.06-.15-.07-.35-.3-.45C56.72,43.82,55.24,46.38,53.64,48.9ZM24.11,32.08c1.43-2.82,2.93-5.38,4.56-8-2.23.32-4.3.74-6.36,1.19-.38.08-.52.2-.37.62.47,1.33.88,2.67,1.34,4C23.51,30.59,23.79,31.25,24.11,32.08Zm0,9c-.86,2.18-1.57,4.24-2.18,6.34-.08.24,0,.3.24.35,2,.47,4,.84,6,1.15.12,0,.28.09.36-.07s0-.22-.1-.31l-1.24-2C26.1,44.86,25.12,43.08,24.11,41.12Zm34-9.25a.44.44,0,0,0,.1-.08c.79-2,1.47-4,2.08-6,.11-.36-.09-.39-.33-.45-.74-.16-1.48-.34-2.23-.48-1.35-.26-2.7-.55-4.18-.7,1.65,2.53,3.11,5.05,4.45,7.63C58,31.8,58.06,31.83,58.1,31.87Z"/><path class="cls-1" d="M41.13,44.2a7.65,7.65,0,1,1,7.62-7.67A7.6,7.6,0,0,1,41.13,44.2Z"/></g></g></g></svg>