<svg xmlns="http://www.w3.org/2000/svg" viewBox="0 0 64.72 77.74"><defs><style>.cls-1{fill:#0b202b;}</style></defs><g id="Capa_2" data-name="Capa 2"><g id="Capa_1-2" data-name="Capa 1"><path class="cls-1" d="M64.72,21.81l-3.89-1.5h0L46.51,22.93v-16L32.44,0,18.36,6.89V17.06C11.84,15.58,4,13.77,4,13.77v11H4v-11L0,16V26.05l1.31-.41h0L0,26.05l18.36,2.18V71l14.08,6.76L46.51,71V33.9l18.21-1.23-3.89-.44,3.89.44ZM18.36,26l-1.65-.17-12-1.62V14.66l13.68,3.13Zm19.25-1.41v9.16l4.86.44,3.33-.23v36.6L33.14,76.62V1.13L45.8,7.33V23.06l-8.19,1.51M64,31.88l-2.47-.28V21.34l2.47.95Z"/></g></g></svg>