<svg xmlns="http://www.w3.org/2000/svg" viewBox="0 0 95.1 74.54"><defs><style>.cls-1{fill:#0b202b;}</style></defs><g id="Capa_2" data-name="Capa 2"><g id="Capa_1-2" data-name="Capa 1"><path class="cls-1" d="M53.4,26.15c-2.62-.9-5-1.71-7.43-2.56-1.11-.4-2.17-.93-3.29-1.3a1.65,1.65,0,0,1-1.27-1.78c0-4.82,0-9.65,0-14.47,0-.41.1-.82.18-1.5.93.22,1.75.34,2.53.6,2.68.89,5.35,1.85,8,2.75.89.3,1.48.73,1.48,1.79,0,5.06,0,10.12,0,15.18A8.27,8.27,0,0,1,53.4,26.15Z"/><path class="cls-1" d="M12,50.35c-2.22-.74-4.23-1.39-6.21-2.1a47,47,0,0,1-4.61-1.83A2,2,0,0,1,.05,45C0,39.88,0,34.73,0,29.58a3.3,3.3,0,0,1,.19-.71,8.55,8.55,0,0,1,1.62.23c3.05,1,6.07,2.07,9.12,3.08a1.55,1.55,0,0,1,1.26,1.63c0,5,0,10.11,0,15.17A9.44,9.44,0,0,1,12,50.35Z"/><path class="cls-1" d="M67.35,4.58a9.46,9.46,0,0,1,.2,1.34c0,4.87,0,9.74,0,14.61a2.22,2.22,0,0,1-1.08,1.69c-3.33,1.33-6.72,2.51-10.1,3.72a4.86,4.86,0,0,1-.75.1,10.16,10.16,0,0,1-.24-1.6c0-4.77,0-9.55,0-14.33a1.94,1.94,0,0,1,1.52-2.17C59.71,7,62.54,6,65.4,5A16.57,16.57,0,0,1,67.35,4.58Z"/><path class="cls-1" d="M26,28.69c.06.8.13,1.31.14,1.81,0,4.59,0,9.18,0,13.76a2.06,2.06,0,0,1-1.67,2.34c-3.09,1-6.13,2.23-9.19,3.35a9.7,9.7,0,0,1-1.15.25,11.45,11.45,0,0,1-.23-1.65c0-4.77,0-9.55,0-14.32A2,2,0,0,1,15.51,32c2.71-.84,5.36-1.84,8-2.74C24.25,29,25,28.92,26,28.69Z"/><path class="cls-1" d="M94.86,4.43a12,12,0,0,1,.22,1.49c0,4.87,0,9.74,0,14.6A2.27,2.27,0,0,1,94,22.22c-3.29,1.32-6.63,2.48-10,3.68a4.86,4.86,0,0,1-.82.14V8.36Z"/><path class="cls-1" d="M80.91,26.19,69.26,22V4.57A15.12,15.12,0,0,1,71,4.92c3,1,5.89,2,8.84,3,.85.29,1.4.71,1.39,1.7,0,5.15,0,10.3,0,15.45A6.07,6.07,0,0,1,80.91,26.19Z"/><path class="cls-1" d="M41.56,50.28c-.07-.72-.15-1.17-.15-1.63,0-4.82,0-9.65,0-14.47a1.83,1.83,0,0,1,1.45-2.07c2.73-.9,5.42-1.92,8.15-2.86a20.41,20.41,0,0,1,2.23-.47c.06.61.16,1,.16,1.5,0,4.77,0,9.55,0,14.33a1.85,1.85,0,0,1-1.47,2c-2.95,1-5.86,2.11-8.79,3.17C42.72,50,42.26,50.08,41.56,50.28Z"/><path class="cls-1" d="M28.21,74.54c-.07-.61-.14-.93-.14-1.25,0-5.05,0-10.1,0-15.16a1.65,1.65,0,0,1,1.15-1.86c3.23-1,6.46-2.1,9.69-3.13a5.53,5.53,0,0,1,1-.15V70.32Z"/><path class="cls-1" d="M27.65,28.58l5.47,1.82c1.7.57,3.44,1.05,5.08,1.76a2.26,2.26,0,0,1,1.22,1.6c.09,5.1.06,10.21,0,15.31a7.69,7.69,0,0,1-.23,1.24L27.65,46.15Z"/><path class="cls-1" d="M14.5,52.89c2.15.74,4.31,1.49,6.48,2.22,1.34.45,2.72.81,4,1.35a1.87,1.87,0,0,1,1.06,1.24c.06,5.43,0,10.87,0,16.31,0,.08-.08.16-.2.4a8.16,8.16,0,0,1-1.13-.24c-3.2-1.16-6.4-2.31-9.56-3.54a1.71,1.71,0,0,1-1-1.18c-.05-5.3,0-10.59,0-15.89C14.2,53.43,14.31,53.31,14.5,52.89Z"/><path class="cls-1" d="M65.92,3.45c-.79.36-1.23.6-1.71.76-2.77.94-5.54,1.9-8.34,2.77A3.65,3.65,0,0,1,53.8,7c-3.33-1-6.64-2.17-9.95-3.29a6.44,6.44,0,0,1-1-.57c.89-.32,1.53-.58,2.18-.77,2.45-.7,4.89-1.46,7.37-2a8.5,8.5,0,0,1,3.74-.2c2.83.71,5.59,1.73,8.37,2.64A13.37,13.37,0,0,1,65.92,3.45Z"/><path class="cls-1" d="M24.48,27.54c-.8.35-1.24.59-1.72.75-2.77.94-5.54,1.91-8.34,2.77a3.7,3.7,0,0,1-2.06,0C9,30.05,5.72,28.92,2.4,27.8a7.08,7.08,0,0,1-.95-.57c.89-.32,1.52-.58,2.17-.76,2.45-.71,4.89-1.46,7.37-2a8.22,8.22,0,0,1,3.74-.2c2.84.71,5.59,1.72,8.38,2.63A14.07,14.07,0,0,1,24.48,27.54Z"/><path class="cls-1" d="M38.59,51.85l-4.47,1.58c-1.74.6-3.45,1.31-5.22,1.76a6.18,6.18,0,0,1-3.11,0c-3-.87-5.92-1.93-8.87-2.93-.46-.16-.9-.38-1.38-.58.15-.24.18-.37.25-.39,3.21-.92,6.4-2,9.66-2.67a10.21,10.21,0,0,1,4.42.26c2.6.66,5.14,1.58,7.7,2.4A7.44,7.44,0,0,1,38.59,51.85Z"/><path class="cls-1" d="M28.58,27.34c2.26-.64,4.1-1.15,5.93-1.68,7.67-2.24,5.42-2.07,13.18.51.67.22,1.36.36,2,.57a5,5,0,0,1,2,1c-.63.27-1.25.56-1.89.78-2.44.86-4.87,1.79-7.36,2.5a5.9,5.9,0,0,1-3.12,0c-3.08-.9-6.1-2-9.13-3C29.76,27.88,29.37,27.68,28.58,27.34Z"/><path class="cls-1" d="M93.11,3.67c-1,.35-1.92.72-2.89,1.06-2,.7-4.09,1.49-6.17,2.05a6.12,6.12,0,0,1-3.12.08c-2.73-.75-5.39-1.73-8.07-2.64A6.39,6.39,0,0,1,70.63,3c.64-.21,1.27-.44,1.92-.62,2.13-.6,4.29-1.12,6.39-1.8a8.91,8.91,0,0,1,6.21,0c2.27.89,4.64,1.54,7,2.31a9.57,9.57,0,0,1,1,.45Z"/><path class="cls-1" d="M63,57.21a6.92,6.92,0,0,1-2.87-2.28A5.85,5.85,0,0,1,59,51.54h3.26a4.33,4.33,0,0,0,1.37,2.78,4.87,4.87,0,0,0,3.48,1.13,5.08,5.08,0,0,0,3.45-1.1,3.54,3.54,0,0,0,1.26-2.81,3.2,3.2,0,0,0-.74-2.18,4.7,4.7,0,0,0-1.85-1.28,27.69,27.69,0,0,0-3-.94,26.39,26.39,0,0,1-3.71-1.22A5.83,5.83,0,0,1,60.15,44a5.58,5.58,0,0,1-1-3.48,6.05,6.05,0,0,1,1-3.4,6.39,6.39,0,0,1,2.74-2.29,9.65,9.65,0,0,1,4.06-.8,8.54,8.54,0,0,1,5.4,1.64,6.1,6.1,0,0,1,2.37,4.38H71.34a3.65,3.65,0,0,0-1.42-2.37,5,5,0,0,0-3.3-1,4.76,4.76,0,0,0-3.12,1,3.39,3.39,0,0,0-1.22,2.78A3,3,0,0,0,63,42.53a4.68,4.68,0,0,0,1.78,1.22c.71.28,1.7.6,3,1A29,29,0,0,1,71.5,46a6.33,6.33,0,0,1,2.43,1.92,5.62,5.62,0,0,1,1,3.52A6.24,6.24,0,0,1,74,54.64a6.78,6.78,0,0,1-2.69,2.46,9,9,0,0,1-4.21.94A10.06,10.06,0,0,1,63,57.21Z"/><path class="cls-1" d="M79.24,34.75A8.63,8.63,0,0,1,84.83,33a8.82,8.82,0,0,1,4,.83,6,6,0,0,1,2.53,2.23,6.08,6.08,0,0,1,.85,3.2A5.62,5.62,0,0,1,91,42.86a5.35,5.35,0,0,1-3.11,2V45a6.22,6.22,0,0,1,3.46,2.12,6.36,6.36,0,0,1,1.28,4.14,6.86,6.86,0,0,1-.87,3.45A6.11,6.11,0,0,1,89.1,57.1a9.34,9.34,0,0,1-4.2.87A9,9,0,0,1,79,56.1a7.24,7.24,0,0,1-2.56-5.3h3a5,5,0,0,0,1.64,3.3,5.43,5.43,0,0,0,3.77,1.28,4.87,4.87,0,0,0,3.59-1.23A4.34,4.34,0,0,0,89.67,51,4,4,0,0,0,88,47.34a9.31,9.31,0,0,0-5.08-1.11h-.77V43.67h.8a9,9,0,0,0,4.68-1,3.35,3.35,0,0,0,1.58-3.08A3.71,3.71,0,0,0,88,36.7a4.72,4.72,0,0,0-3.31-1.07,5.12,5.12,0,0,0-3.37,1.07,4.41,4.41,0,0,0-1.51,2.9h-3A6.62,6.62,0,0,1,79.24,34.75Z"/></g></g></svg>