<svg xmlns="http://www.w3.org/2000/svg" viewBox="0 0 89.26 66.82"><defs><style>.cls-1{fill:#0b202b;}</style></defs><g id="Capa_2" data-name="Capa 2"><g id="Capa_1-2" data-name="Capa 1"><g id="PHmuqO.tif"><path class="cls-1" d="M7.57,66.82a1,1,0,0,0-.27-.2,5.89,5.89,0,0,1-4.38-6.74,11.54,11.54,0,0,1,4.34-7.55A50.34,50.34,0,0,1,16,46.59c.38-.21.88-.29,1.12-.89a10.39,10.39,0,0,0-2.47-2,79.39,79.39,0,0,1-9.47-7.15,16.62,16.62,0,0,1-5-7.51,8.39,8.39,0,0,1,.42-5.22,23.1,23.1,0,0,1,6.78-9.6A59.61,59.61,0,0,1,32.84,1,27.46,27.46,0,0,1,48,1.14a12.92,12.92,0,0,1,5.61,3.24A9.4,9.4,0,0,1,56,13c-.84,5.09-3.74,8.93-7.63,12.1a26.45,26.45,0,0,1-13.07,5.32,23.24,23.24,0,0,1-8.56,0,9.15,9.15,0,0,1-5.25-3.08c-.54-.65-1.09-1.34-.75-2.26a.73.73,0,0,1,.85.18c2.7,2.36,5.88,2.86,9.33,2.45a27.45,27.45,0,0,0,13.34-5.1c3.08-2.25,5.58-4.95,6.73-8.68,1.1-3.54-.14-6.1-3.58-7.43a14.1,14.1,0,0,0-4.37-.88,35.71,35.71,0,0,0-17,3.56,52.66,52.66,0,0,0-13.82,8.65c-2.58,2.33-4.71,5-5.43,8.55A8.62,8.62,0,0,0,8.33,33,20.33,20.33,0,0,0,13,37.55c2.61,2.06,5.29,4,7.81,6.43l8.42-4.61a3.38,3.38,0,0,0,.95-1,14.21,14.21,0,0,1,4.5-3.69,8.81,8.81,0,0,1,1.59-.64c2.34-.7,3.94.44,4.11,2.9a7,7,0,0,0,.16,2.15,2.28,2.28,0,0,1,2.47.65,3,3,0,0,1-.05,2c-.59,2.28-1.17,4.55-1.73,6.84A7.53,7.53,0,0,0,41.12,52,15.65,15.65,0,0,0,43,48.66C45,44.12,47,39.55,49.06,35A12.18,12.18,0,0,0,50,32.22a1.76,1.76,0,0,1,1.79-1.54c.81,0,1.61-.06,2.41-.05a1.42,1.42,0,0,1,1.49.89c-1.12,3.27-1.6,6.64.41,10.22,2.67-4.35,5.26-8.44,6.23-13.14,2.48-1.06,4.3-1,5.52.29a10.78,10.78,0,0,0,.91,11.18,4.16,4.16,0,0,0,1.79-.55,17.82,17.82,0,0,1,10.32-.6c4.13,1,7.13,3.34,8.21,7.67a1,1,0,0,0,.2.27v2.41c-.41.36-.42.92-.65,1.37a5.88,5.88,0,0,1-3.23,3c-.35.14-.75.31-1.06-.15.07-.54.58-.68.91-1a5,5,0,0,0,.57-7.54,9.48,9.48,0,0,0-3.66-2.49,16.4,16.4,0,0,0-4.18-1,15.85,15.85,0,0,0-8,1,4.29,4.29,0,0,0,.27,1.76A5.87,5.87,0,0,1,69,49.53a11.87,11.87,0,0,1-6.61,3.77,2,2,0,0,1-2.32-1.57,4,4,0,0,1,.06-2,12.35,12.35,0,0,1,3-5.16,14,14,0,0,0,2-2.17,22.09,22.09,0,0,1-2.4-6.64c-1.53,2.59-2.79,4.91-4.25,7.09a3.62,3.62,0,0,0-.51,3.5,6.27,6.27,0,0,1-.73,6.08,10.14,10.14,0,0,1-8.83,3.74c-1.41-.07-1.93-1.22-1.22-2.47a14,14,0,0,1,1.12-1.53,77.43,77.43,0,0,0,5.08-6.39,27.67,27.67,0,0,1-2.63-7.13,2.82,2.82,0,0,0-.81,1.27c-1.39,3.27-2.76,6.55-4.47,9.67-1.15,2.11-2.06,4.37-3.62,6.23-.8.95-1.67,2-3.16,1.55S37,55.4,36.89,54.08a27,27,0,0,1,0-2.7,8.74,8.74,0,0,0-1.16,1.94,28.63,28.63,0,0,1-2.2,4.08,3.28,3.28,0,0,1-5.28-.25,13.2,13.2,0,0,1-1.84-8.73c.23-1.5.47-3,.75-4.71a31.23,31.23,0,0,0-4.67,2.7,14.91,14.91,0,0,1,1,5.92A14.59,14.59,0,0,1,13.12,66.22c-.59.18-1.27.12-1.76.6Zm12-19.12c-3.54,2.15-6.84,4.11-9.34,7.1a8.73,8.73,0,0,0-1.83,4c-.35,1.8.57,2.87,2.4,2.89a6.47,6.47,0,0,0,3.27-.91,11.35,11.35,0,0,0,5.78-7.74A10,10,0,0,0,19.56,47.7Zm12.22,5.67a6,6,0,0,0,.71-.57,4.08,4.08,0,0,0,.6-.83,69.15,69.15,0,0,0,4.73-12.66c.16-.62.37-1.36-.39-2a4.57,4.57,0,0,0-3,2A17.6,17.6,0,0,0,30.76,49,6.58,6.58,0,0,0,31.78,53.37ZM63,50.29c2.91-.84,4.31-3.44,3.26-5.78A9,9,0,0,0,63,50.29Zm-12.5,2.86a5.73,5.73,0,0,0,4.17-4.91Z"/></g></g></g></svg>