<svg xmlns="http://www.w3.org/2000/svg" viewBox="0 0 71.92 76.54"><defs><style>.cls-1{fill:#0b202b;}.cls-2{fill:#fcc632;}</style></defs><g id="Capa_2" data-name="Capa 2"><g id="Capa_1-2" data-name="Capa 1"><path class="cls-1" d="M5.47,57.87q0-19.18,0-38.36a5.74,5.74,0,0,0-.09-1.24h0c-.46-.13-2.52-.66-3.19-.77A12,12,0,0,0,0,17.16V58.1l2.38-.36,3.79,5.44.39.52L8.42,60c-.2,0-2.95-.8-2.95-.8Z"/><path class="cls-1" d="M22.32,13.13l-.06,0h0c-.38-.14-.65-.25-.93-.33-.73-.21-1.48-.36-2.2-.6-1.79-.58-3.56-1.22-5.36-1.8a1.08,1.08,0,0,0-.44,0V60.81l5.07-.64c2,2.88,4.05,5.75,6.12,8.68l.34.38c1-1.91,1.92-3.81,2.89-5.76-1.2-.18-4.75-.94-5.43-1Z"/><path class="cls-1" d="M33.64,0V64.63l6.72-1.15c.84,1.14,1.71,2.22,2.47,3.37s1.76,2.53,2.68,3.77c1.1,1.47,2.07,3,3.1,4.54.24.35.52.68.88,1.14l.16.24h0c1.49-2.7,2.77-5.52,4.11-8.31s2.66-5.6,4-8.44c2.34-.61,4.69-1,7-1.45s4.75-1,7.13-1.44V19.14Z"/><polygon class="cls-2" points="33.64 0 33.64 0 33.64 0 33.64 0"/><path class="cls-2" d="M13.33,10.33h0Z"/></g></g></svg>