<svg xmlns="http://www.w3.org/2000/svg" viewBox="0 0 73.71 73.7"><defs><style>.cls-1{fill:#0b202b;}</style></defs><g id="Capa_2" data-name="Capa 2"><g id="Capa_1-2" data-name="Capa 1"><g id="sQaRU9.tif"><path class="cls-1" d="M73.71,37A36.86,36.86,0,1,1,36.9,0,36.77,36.77,0,0,1,73.71,37ZM36.73,5.4C19.91,5.36,6.25,19.15,5.52,35.24,4.58,55.8,22,68,35.88,68.29c20.09.38,32.39-16.8,32.44-30.93C68.39,16.39,50.52,5.23,36.73,5.4Z"/><path class="cls-1" d="M22.2,57.63c.33-.55.64-1.12,1-1.66,3.53-5.36,7.11-10.7,10.59-16.09a2.49,2.49,0,0,1,2.46-1.28c3,.06,6.11,0,9.35.4l-23,19Z"/><path class="cls-1" d="M28.14,34.67l23-19,.33.29c-.22.41-.4.84-.65,1.22C47.14,22.82,43.48,28.42,39.72,34a2.85,2.85,0,0,1-2,1.07c-3.15.12-6.3,0-9.45,0Z"/></g></g></g></svg>