<svg xmlns="http://www.w3.org/2000/svg" viewBox="0 0 64.32 77.64"><defs><style>.cls-1{fill:#0b202b;}</style></defs><g id="Capa_2" data-name="Capa 2"><g id="Capa_1-2" data-name="Capa 1"><path class="cls-1" d="M64.32,25.18h0v-9.1L32.16,0,0,16.08V61.55H0L32.16,77.64,64.3,61.57v-9.1L37,49.07V48L64.3,44.56V33L37,29.54V29C42.81,28.18,64.49,25.2,64.32,25.18ZM32.16,15.53h0l29.66,8.9L35.24,28.32,4.11,23.94ZM16.07,31V46.65l-7.68-1V32Zm46.21,22.1-30.12,9-28-8.42,1.76-.25h0l27.66-3.89h0C33.29,49.58,62.28,53.08,62.28,53.08ZM36.52,49.13l.21,0Zm-2.72.38.27,0Zm1.31-.18L36,49.2Zm-3-.71v.07l-11.84-1.5V30.44l11.84-1.51V48.62Z"/></g></g></svg>