<svg xmlns="http://www.w3.org/2000/svg" viewBox="0 0 85.52 30.17"><defs><style>.cls-1{fill:#0b202b;}</style></defs><g id="Capa_2" data-name="Capa 2"><g id="Capa_1-2" data-name="Capa 1"><path class="cls-1" d="M60.77,7.23h4.11l.18,1.66a7.11,7.11,0,0,1,6.67-2,7.6,7.6,0,0,1,4.64,2.89,9.24,9.24,0,0,1-.46,11.85C73,24.77,69,25,65,22v8.14H60.77ZM69.53,20A4.43,4.43,0,0,0,74,15.42a4.46,4.46,0,0,0-4.52-4.61A4.39,4.39,0,0,0,65,15.5,4.31,4.31,0,0,0,69.53,20Z"/><path class="cls-1" d="M53.22,8.8l.13-1.55h4.14V23.61H53.35L53.21,22a7.17,7.17,0,0,1-6.76,2,7.59,7.59,0,0,1-4.68-3,9.26,9.26,0,0,1,.64-11.77C45.36,6.11,49.16,6,53.22,8.8Zm0,6.7a4.52,4.52,0,1,0-9-.08,4.52,4.52,0,1,0,9,.08Z"/><path class="cls-1" d="M13.06,10.22,9.37,11.86a2.8,2.8,0,0,0-3-1.21A2,2,0,0,0,5.1,11.76c-.09.29.5,1,.93,1.19,1.42.58,2.93.94,4.36,1.49a4.36,4.36,0,0,1,3,3.83,4.44,4.44,0,0,1-2.36,4.78,10.47,10.47,0,0,1-2.82,1c-3.62.66-6.79-.82-8.23-3.84l3.76-1.67a3.44,3.44,0,0,0,3.68,1.71c.73-.08,1.47-.25,1.61-1.14s-.53-1.19-1.19-1.42c-1.28-.45-2.59-.83-3.86-1.3A4.46,4.46,0,0,1,.66,12.1,4.77,4.77,0,0,1,3.82,7.33,7.33,7.33,0,0,1,13.06,10.22Z"/><path class="cls-1" d="M25.69,19.8v3.84a10,10,0,0,1-5.57-.48,4,4,0,0,1-2.22-3.57c-.13-2.25-.11-4.51-.15-6.77,0-.46,0-.92,0-1.52H15V7.23h2.72V4.41L22,2.49V7.17h3.63V11.3H22c0,2.46,0,4.78,0,7.1,0,1,.75,1.34,1.62,1.39C24.34,19.83,25,19.8,25.69,19.8Z"/><path class="cls-1" d="M29.2,23.62V7.27h4.21V9.4a14.83,14.83,0,0,1,2.2-1.83,14.14,14.14,0,0,1,2.71-.87v4.87l-.79,0c-2.63.12-4.07,1.58-4.11,4.24,0,2.22,0,4.44,0,6.66,0,.35,0,.7,0,1.1Z"/><path class="cls-1" d="M80.86,7.26H85V23.6H80.86Z"/><path class="cls-1" d="M82.93,0a2.68,2.68,0,0,1,2.59,2.62,2.61,2.61,0,0,1-2.69,2.6,2.57,2.57,0,0,1-2.52-2.64A2.64,2.64,0,0,1,82.93,0Z"/></g></g></svg>