<svg xmlns="http://www.w3.org/2000/svg" viewBox="0 0 93.13 43.22"><defs><style>.cls-1{fill:#0b202b;}.cls-2{fill:#fec750;}.cls-3{fill:#fefefe;}</style></defs><g id="Capa_2" data-name="Capa 2"><g id="Capa_1-2" data-name="Capa 1"><g id="EB0YfX.tif"><path class="cls-1" d="M47.67,8.56a4.68,4.68,0,0,1-.5,3.07,1.11,1.11,0,0,0-.19.45h0l-.1.09a.61.61,0,0,1-.14.1A24.34,24.34,0,0,0,44.06,14c-.75.56-.79,1-.14,1.65a8.44,8.44,0,0,0,2.93,1.87,3.65,3.65,0,0,0,2,.24,11.6,11.6,0,0,0,4-1.46,17.77,17.77,0,0,0,3-2.49A4.47,4.47,0,0,1,55,17.44,17.94,17.94,0,0,1,50.44,22a49.92,49.92,0,0,1-5.89,3.78c-1.24.69-2.45,1.42-3.67,2.13a1.83,1.83,0,0,0-.58.49s-.14,0-.1.08.1,0,.15,0c.43-.07.78-.38,1.23-.4-.61.76-.59,1,.14,1.72l.19.19a8.49,8.49,0,0,0,3.26,1.73,2.75,2.75,0,0,0,1,.14,12.16,12.16,0,0,0,5.73-2.49c.6-.47,1.11-1,1.67-1.55a4.94,4.94,0,0,1-1,3.94A19.24,19.24,0,0,1,48.06,36a48.09,48.09,0,0,1-5.62,3.63c-1.28.7-2.54,1.44-3.79,2.2-.68.42-1.29,1-1.93,1.44H27.53q0-15,0-30a.74.74,0,0,1,.46-.79C30.36,11.19,32.71,10,35.17,9a.94.94,0,0,1,.55-.14c-.6.77-.6,1,.13,1.71a7.85,7.85,0,0,0,3.31,1.9,2.29,2.29,0,0,0,1,.17,11.85,11.85,0,0,0,6-2.6C46.71,9.57,47.06,8.93,47.67,8.56Z"/><path class="cls-1" d="M65.47,6.26c0-.13-.15-.18-.26-.24a8.07,8.07,0,0,1-.89-.68,1.92,1.92,0,0,1-.73-2.23A20.21,20.21,0,0,0,64.08.42c0-.34.19-.42.52-.42,2.05,0,4.1,0,6.15,0V6.67a8,8,0,0,1-1.61.21c-.25,0-.35.1-.43.35q-1.78,6.12-3.61,12.24a1.94,1.94,0,0,0,0,.72,12.89,12.89,0,0,1-.8,5.29,6.58,6.58,0,0,1-2.69,3.45l-.15.09c-1,.59-1.09.58-1.79-.35-.52-.7-1-1.4-1.57-2.08a.73.73,0,0,1-.14-.62,5.52,5.52,0,0,1,2-3.24c.46-.39.91-.79,1.34-1.2a5.61,5.61,0,0,0,1.54-2.65c.09.12.19.23.28.34a1.29,1.29,0,0,0,.79.48c.28.05.45,0,.54-.34.3-1.19.66-2.36,1-3.54a63.18,63.18,0,0,0,1.83-7.29,1.84,1.84,0,0,0-.49-1.78A3.18,3.18,0,0,0,65.47,6.26Z"/><path class="cls-1" d="M53.11,24.33a2,2,0,0,1,.62.09.36.36,0,0,1,.25.19A.48.48,0,0,1,54,25a6.92,6.92,0,0,1-1.17,2.06l-.48.46a11.83,11.83,0,0,1-1.06,1A11.2,11.2,0,0,1,46,30.79a2.17,2.17,0,0,1-.48-.1l-.07,0a7.38,7.38,0,0,1-2.87-1.53l-.08-.08,0,0-.19-.2a.91.91,0,0,0,.21-.18,29,29,0,0,1,6.1-3.21,17.43,17.43,0,0,1,4.17-1.07,2.56,2.56,0,0,1,.39,0m0-1a4.19,4.19,0,0,0-.5,0,18.69,18.69,0,0,0-4.41,1.13,30.32,30.32,0,0,0-6.44,3.41.17.17,0,0,1-.15.11h0c-.61.76-.59,1,.14,1.72l.19.19a8.49,8.49,0,0,0,3.26,1.73,3.22,3.22,0,0,0,.8.15h.17a12.16,12.16,0,0,0,5.73-2.49c.6-.47,1.11-1,1.67-1.55a8.17,8.17,0,0,0,1.37-2.4A1.36,1.36,0,0,0,54,23.47a3,3,0,0,0-.93-.14ZM41.58,28Z"/><path class="cls-1" d="M47.36,5.16a.86.86,0,0,1,.62.17c.09.09.26.24.09.65A8,8,0,0,1,47,7.81a5.35,5.35,0,0,0-.94.88,3.61,3.61,0,0,1-.51.52A11,11,0,0,1,40,11.61a1.65,1.65,0,0,1-.4-.1l-.12,0a6.82,6.82,0,0,1-2.9-1.65l-.19-.19,0-.05h0l.09-.06.05,0A27.86,27.86,0,0,1,43.41,6a15.16,15.16,0,0,1,3.42-.81l.53,0m0-1-.62,0a15.89,15.89,0,0,0-3.65.86A29.08,29.08,0,0,0,36,8.66l-.13.07h0l-.13.09h0c-.6.77-.6,1,.13,1.72a7.94,7.94,0,0,0,3.31,1.89,2.73,2.73,0,0,0,.81.18h.14a11.85,11.85,0,0,0,6-2.6c.56-.43.91-1.07,1.52-1.44A8.75,8.75,0,0,0,49,6.36a1.49,1.49,0,0,0-.34-1.77,1.81,1.81,0,0,0-1.29-.43Z"/><path class="cls-1" d="M55.44,10.36a1.91,1.91,0,0,1,.43,0,.81.81,0,0,1,.42.18.87.87,0,0,1,0,.52,5.84,5.84,0,0,1-1.12,2l-.63.58a11.49,11.49,0,0,1-2.16,1.72,10.55,10.55,0,0,1-3.63,1.34,2.28,2.28,0,0,1-.45,0,2.47,2.47,0,0,1-1-.21,7.38,7.38,0,0,1-2.6-1.63l-.08-.09a.35.35,0,0,1,.09-.07,21.79,21.79,0,0,1,2.57-1.63l.11-.06.22-.12a4.63,4.63,0,0,0,.63-.31l.23-.12A20.82,20.82,0,0,1,55,10.39l.46,0m0-1a5.65,5.65,0,0,0-.59,0A21.9,21.9,0,0,0,48,11.64a4.16,4.16,0,0,1-1,.44c0,.08-.05.07-.1.08a.61.61,0,0,1-.14.1A24.34,24.34,0,0,0,44.06,14c-.75.56-.79,1-.14,1.65a8.44,8.44,0,0,0,2.93,1.87,3.49,3.49,0,0,0,1.41.29,4,4,0,0,0,.6-.05,11.6,11.6,0,0,0,4-1.46,17.77,17.77,0,0,0,3-2.49,7.11,7.11,0,0,0,1.35-2.42c.26-1,0-1.66-1.12-1.92a3,3,0,0,0-.66-.07ZM47,12.07h0Z"/><path class="cls-1" d="M65.81,6.87a1.45,1.45,0,0,1,.56.26c.2.17.45.5.33,1.33a40.79,40.79,0,0,1-1.3,5.37c-.18.62-.35,1.24-.52,1.86-.13.45-.25.9-.38,1.35-.2.71-.41,1.44-.59,2.16a.79.79,0,0,1-.47-.29l-.13-.16.3-1.44c.3-1.37.59-2.74.88-4.11s.52-2.48.77-3.72l.55-2.61m-.34-.61a1.72,1.72,0,0,0-.11.29Q64.69,9.82,64,13.09l-1.23,5.79c.09.12.19.23.28.34a1.29,1.29,0,0,0,.79.48l.17,0c.19,0,.3-.09.37-.36.3-1.19.66-2.36,1-3.54a63.18,63.18,0,0,0,1.83-7.29,1.87,1.87,0,0,0-.49-1.78,3.18,3.18,0,0,0-1.23-.49Z"/><path class="cls-2" d="M41.76,27.9c0,.08-.09.12-.18.1S41.68,27.91,41.76,27.9Z"/><path class="cls-2" d="M36,8.66l-.13.07Z"/><path class="cls-2" d="M35.85,8.74l-.13.09C35.73,8.74,35.79,8.74,35.85,8.74Z"/><path class="cls-3" d="M40.35,28.4c-.05.05-.13.08-.15,0s.06-.06.1-.08Z"/><path class="cls-3" d="M47,12.07c0,.09-.05.08-.1.09Z"/></g><path class="cls-1" d="M17.64,31.73l-1.87,2.52L0,24.43V20.8L16,11l1.7,2.65L3,22.64Z"/><path class="cls-1" d="M93.13,20.84v3.58L77.34,34.26l-1.86-2.57,14.65-9.06-14.66-9L77.18,11Z"/></g></g></svg>