<svg xmlns="http://www.w3.org/2000/svg" viewBox="0 0 73.58 27.32"><defs><style>.cls-1{fill:#0b202b;}</style></defs><g id="Capa_2" data-name="Capa 2"><g id="Capa_1-2" data-name="Capa 1"><path class="cls-1" d="M20.74.3V5.54h-7.1V27.12H7.11V5.54H0V.3Z"/><path class="cls-1" d="M24.64,6.59a12.24,12.24,0,0,1,4.8-4.85,13.87,13.87,0,0,1,7-1.74,13.32,13.32,0,0,1,8.17,2.52A12.11,12.11,0,0,1,49.13,9.4H42a5.82,5.82,0,0,0-2.28-2.56A6.34,6.34,0,0,0,36.33,6a6.25,6.25,0,0,0-4.89,2.1,8.12,8.12,0,0,0-1.87,5.62,8.11,8.11,0,0,0,1.87,5.61,6.25,6.25,0,0,0,4.89,2.1,6.34,6.34,0,0,0,3.34-.88A5.8,5.8,0,0,0,42,18h7.18a12,12,0,0,1-4.55,6.85,13.38,13.38,0,0,1-8.17,2.51,13.87,13.87,0,0,1-7-1.74,12.28,12.28,0,0,1-4.8-4.84,14.23,14.23,0,0,1-1.72-7.06A14.39,14.39,0,0,1,24.64,6.59Z"/><path class="cls-1" d="M72.51,13.2a7.81,7.81,0,0,1-3.29,3.11,11.54,11.54,0,0,1-5.5,1.19h-4v9.62H53.14V.3H63.72a12.05,12.05,0,0,1,5.43,1.11,7.66,7.66,0,0,1,3.32,3.06,8.88,8.88,0,0,1,1.11,4.47A8.69,8.69,0,0,1,72.51,13.2ZM66,11.42a3.23,3.23,0,0,0,.92-2.48A3.23,3.23,0,0,0,66,6.46a3.87,3.87,0,0,0-2.78-.88H59.67V12.3h3.56A3.87,3.87,0,0,0,66,11.42Z"/></g></g></svg>