<svg xmlns="http://www.w3.org/2000/svg" viewBox="0 0 75.43 75.43"><defs><style>.cls-1{fill:#0b202b;}</style></defs><g id="Capa_2" data-name="Capa 2"><g id="Capa_1-2" data-name="Capa 1"><g id="PVzBlV.tif"><path class="cls-1" d="M68.13,75.43H7.18a2.57,2.57,0,0,0-.68-.3C2.75,74.78,0,71.72,0,67.2,0,47.48,0,27.77.06,8.05A10.23,10.23,0,0,1,1.32,3.41C2.81.69,5.53,0,8.43,0H67.08c4.58,0,7.63,2.56,8.06,6.5a2.49,2.49,0,0,0,.29.68v61a5,5,0,0,0-.33.92,6.93,6.93,0,0,1-6,6A5.33,5.33,0,0,0,68.13,75.43ZM67.89,36.1a10.59,10.59,0,0,0-1.34-.53,24.87,24.87,0,0,0-12.79-.11c-3.84,1-6.6,3.34-7.34,7.42q-1.2,6.6,4.84,10.16c1.91,1.12,4,1.92,6,3a11.71,11.71,0,0,1,2.88,2,2.54,2.54,0,0,1-.87,4.39,12.37,12.37,0,0,1-4.4.69,13.6,13.6,0,0,1-8.37-3.27v7.55a5.66,5.66,0,0,0,1,.57,24.11,24.11,0,0,0,16.12.2C70.5,65.74,71,55.49,66.09,52.19c-2.31-1.55-4.9-2.69-7.34-4a18.25,18.25,0,0,1-3.19-2c-1.71-1.47-1.36-3.43.68-4.43a6,6,0,0,1,1.3-.44,13.78,13.78,0,0,1,9,1.36c.38.18.78.34,1.33.59ZM34.47,42h9.25V35.65H17.25v6.43h9.32V68.89h7.9Z"/></g></g></g></svg>