<svg xmlns="http://www.w3.org/2000/svg" viewBox="0 0 430.79 430.79"><defs><style>.cls-1{fill:#0b202b;}.cls-2{fill:#fcc632;}</style></defs><g id="Capa_2" data-name="Capa 2"><g id="Capa_1-2" data-name="Capa 1"><circle class="cls-1" cx="215.39" cy="215.39" r="215.39"/><path class="cls-2" d="M331,200.41q-4.63-5.52-4.64-13.92V140.16q0-15.36-6-23.76T302.78,108H285.56v0H226.51c-11.55,0-19.88.56-25.45,1.72a49.09,49.09,0,0,0-15.56,6,58.93,58.93,0,0,0-19.83,19.8,50.34,50.34,0,0,0-7.06,26c0,11.61,3.22,21.83,9.58,30.37A54.41,54.41,0,0,0,184.1,206a37.45,37.45,0,0,0-7.94,5.63c-5.32,5-8,10.9-8,17.52a21.75,21.75,0,0,0,6.4,15.76,16.27,16.27,0,0,0,1.54,1.69,31.37,31.37,0,0,0,4.17,3.34c6.13,4.18,17.89,9.65,38.71,11,.26,0,.48.05.73.06,12.63.31,22.11,2,28.14,5.19,5.67,3,8.31,7.13,8.31,13.1,0,6.5-2.9,11.12-9.13,14.52a37.23,37.23,0,0,1-7.77,3.08,57.62,57.62,0,0,1-15.7,1.95H141.36a6.89,6.89,0,0,1-7.13-5.16,39,39,0,0,1-1.7-12.12V242.41q0-10.8-4.53-17.88T116.24,216v-.48q7.24-1.44,11.76-8.52t4.53-17.88V149.28a39,39,0,0,1,1.7-12.12,6.88,6.88,0,0,1,7.13-5.16h6.79V108H128q-11.53,0-17.53,8.4t-6,23.76v46.33q0,8.4-4.64,13.92c-3.09,3.68-6.53,5.52-10.29,5.52v19.68c3.76,0,7.2,1.84,10.29,5.52s4.64,8.32,4.64,13.92v45.61q0,15.34,6,23.76t17.53,8.4h85.9c22.16,0,38.4-3.44,49.67-10.51,11.9-7.48,17.93-18.9,17.93-33.93,0-13.27-4.71-23.25-14-29.68-8.62-6-23.63-9.92-45.89-12.08l-.52,0c-.2,0-.47,0-1.11-.12-25.75-2.46-27.35-7.61-27.35-7.66,0-4.12,7.05-8.24,19.35-11.31q6.59-1.65,10.16-2.7c15.87-4.55,27.84-11.2,35.59-19.75,8-8.81,12-20.1,12-33.56a49.82,49.82,0,0,0-4.47-21.2,46.94,46.94,0,0,0-4.88-8.26l23.39,0h5.62a6.88,6.88,0,0,1,7.13,5.16,39,39,0,0,1,1.69,12.12v39.85q0,10.8,4.53,17.88t11.77,8.52V216q-7.24,1.44-11.77,8.52t-4.53,17.88v39.13a39,39,0,0,1-1.69,12.12,6.89,6.89,0,0,1-7.13,5.16h-6.79v24h20.14q11.54,0,17.54-8.4t6-23.76V245.05q0-8.4,4.64-13.92t10.3-5.52V205.93Q335.6,205.93,331,200.41Zm-95.37-17.82a28.45,28.45,0,0,1-21.1,8.68,29,29,0,0,1-21.35-8.64,27.92,27.92,0,0,1-8.72-20.84,30,30,0,0,1,51.17-21.41,30,30,0,0,1,0,42.21Z"/></g></g></svg>