<svg xmlns="http://www.w3.org/2000/svg" viewBox="0 0 82.89 57.35"><defs><style>.cls-1{fill:#0b202a;}</style></defs><g id="Capa_2" data-name="Capa 2"><g id="Capa_1-2" data-name="Capa 1"><path class="cls-1" d="M55.15,30.77H23.25a7.73,7.73,0,0,1-1.67-.08,2.05,2.05,0,0,1,0-4,8.33,8.33,0,0,1,1.66-.08H53.55a3.36,3.36,0,0,0,1.63-.13c0-.57-.48-.76-.77-1.06C52.27,23.25,50.1,21.12,48,19a2,2,0,0,1-.11-3.1,2,2,0,0,1,3,0q5.69,5.61,11.3,11.29a2,2,0,0,1-.06,3.1q-5.56,5.63-11.19,11.18a2,2,0,0,1-3,.06,2,2,0,0,1,.09-3.1c2.42-2.44,4.87-4.85,7.31-7.28Z"/><path class="cls-1" d="M61.62,57.35H21.27A21.29,21.29,0,0,1,0,36.08V21.27A21.29,21.29,0,0,1,21.27,0H61.62A21.29,21.29,0,0,1,82.89,21.27V36.08A21.29,21.29,0,0,1,61.62,57.35ZM21.27,4.05A17.25,17.25,0,0,0,4.05,21.27V36.08A17.25,17.25,0,0,0,21.27,53.3H61.62A17.25,17.25,0,0,0,78.84,36.08V21.27A17.25,17.25,0,0,0,61.62,4.05Z"/></g></g></svg>