<svg xmlns="http://www.w3.org/2000/svg" viewBox="0 0 44.12 63.77"><defs><style>.cls-1{fill:#fcc632;}</style></defs><g id="Capa_2" data-name="Capa 2"><g id="Capa_1-2" data-name="Capa 1"><path class="cls-1" d="M20.45,42.42V17.88a6.08,6.08,0,0,1,.07-1.28,1.58,1.58,0,0,1,3.06,0,6.86,6.86,0,0,1,.06,1.28q0,11.66,0,23.29a2.57,2.57,0,0,0,.1,1.26c.43,0,.59-.37.82-.59,1.66-1.65,3.3-3.32,5-5a1.56,1.56,0,0,1,2.38-.08,1.53,1.53,0,0,1,0,2.29q-4.32,4.38-8.69,8.7a1.55,1.55,0,0,1-2.39-.05q-4.32-4.29-8.6-8.61a1.54,1.54,0,0,1,0-2.3,1.56,1.56,0,0,1,2.38.07c1.88,1.86,3.74,3.75,5.6,5.62Z"/><path class="cls-1" d="M27.75,63.77H16.37A16.38,16.38,0,0,1,0,47.4v-31A16.38,16.38,0,0,1,16.37,0H27.75A16.38,16.38,0,0,1,44.12,16.37v31A16.38,16.38,0,0,1,27.75,63.77ZM16.37,3.12A13.26,13.26,0,0,0,3.12,16.37v31A13.26,13.26,0,0,0,16.37,60.65H27.75A13.26,13.26,0,0,0,41,47.4v-31A13.26,13.26,0,0,0,27.75,3.12Z"/></g></g></svg>