<svg xmlns="http://www.w3.org/2000/svg" viewBox="0 0 82.89 57.35"><defs><style>.cls-1{fill:#0b202a;}</style></defs><g id="Capa_2" data-name="Capa 2"><g id="Capa_1-2" data-name="Capa 1"><path class="cls-1" d="M27.75,26.59H59.64a7.73,7.73,0,0,1,1.67.08,1.9,1.9,0,0,1,1.53,2,1.87,1.87,0,0,1-1.56,2,8.33,8.33,0,0,1-1.66.08H29.34a3.25,3.25,0,0,0-1.63.14c0,.56.48.76.77,1.06,2.14,2.16,4.31,4.29,6.44,6.47A2,2,0,0,1,35,41.5a2,2,0,0,1-3,0q-5.68-5.62-11.3-11.29a2,2,0,0,1,.06-3.11Q26.38,21.46,32,15.89a2,2,0,0,1,3-.05,2,2,0,0,1-.1,3.09c-2.41,2.45-4.87,4.86-7.31,7.28Z"/><path class="cls-1" d="M61.62,57.35H21.27A21.29,21.29,0,0,1,0,36.08V21.27A21.29,21.29,0,0,1,21.27,0H61.62A21.29,21.29,0,0,1,82.89,21.27V36.08A21.29,21.29,0,0,1,61.62,57.35ZM21.27,4.05A17.25,17.25,0,0,0,4.05,21.27V36.08A17.25,17.25,0,0,0,21.27,53.3H61.62A17.25,17.25,0,0,0,78.84,36.08V21.27A17.25,17.25,0,0,0,61.62,4.05Z"/></g></g></svg>