<svg xmlns="http://www.w3.org/2000/svg" viewBox="0 0 18.31 18.31"><defs><style>.cls-1{fill:#fcc632;}</style></defs><g id="Capa_2" data-name="Capa 2"><g id="Capa_1-2" data-name="Capa 1"><path class="cls-1" d="M15.08,17.68,9.27,11.87,3.36,17.78a1.8,1.8,0,0,1-2.56,0l-.27-.27A1.8,1.8,0,0,1,.53,15L6.44,9,.66,3.26A1.82,1.82,0,0,1,.66.7h0A1.82,1.82,0,0,1,3.23.7L9,6.47,15,.53a1.8,1.8,0,0,1,2.56,0l.27.27a1.8,1.8,0,0,1,0,2.56L11.84,9.3l5.81,5.81a1.84,1.84,0,0,1,0,2.57h0A1.82,1.82,0,0,1,15.08,17.68Z"/></g></g></svg>