<svg xmlns="http://www.w3.org/2000/svg" viewBox="0 0 399.15 293.49"><defs><style>.cls-1{fill:#fff;}</style></defs><g id="Capa_2" data-name="Capa 2"><g id="Capa_1-2" data-name="Capa 1"><path class="cls-1" d="M352.76.9,351.18.31,49.86,0,48.08.29c-1.55.53-3.12,1-4.7,1.46A64.54,64.54,0,0,0,32.11,5.89C11.26,16.66.2,34.44.12,57.31Q-.1,120.52,0,183.71L0,236.2a56.77,56.77,0,0,0,46.57,56.4l1.78-5.16h0l-.5,5.68,302.28.36,4.51-1.33a87.72,87.72,0,0,0,8.59-2.77,57.06,57.06,0,0,0,35.87-53.22V57C399.15,30.08,379.21,6,352.76.9Zm20.67,59.46q.09,87.08,0,174.12l-87-87.08ZM340,267.75,59,267.77c-7.41,0-13.67-1.71-19-5.22l98.14-98.07,45,45.28c11.59,11.6,28.44,11.69,40.08.11q21.74-21.6,43.3-43.33L360.9,261.2a32,32,0,0,1-18.35,6.54C342,267.78,341.42,267.77,340,267.75Zm-136.72-75.3s-.82-.12-2.69-2L40.72,30.61a29.31,29.31,0,0,1,10.64-4.16,37.94,37.94,0,0,1,7.39-.67l281.7,0c8.84,0,16,2.63,22.3,8.23L206,190.4C204,192.36,203.23,192.45,203.23,192.45ZM117.67,145.7,25.81,237.48c0-.88-.07-1.8-.07-2.79l0-143.26c0-11-.08-22,.13-32.94a40.84,40.84,0,0,1,.39-4.58Z"/></g></g></svg>