<svg xmlns="http://www.w3.org/2000/svg" viewBox="0 0 24.18 20.63"><defs><style>.cls-1{fill:#fcc632;}</style></defs><g id="Capa_2" data-name="Capa 2"><g id="Capa_1-2" data-name="Capa 1"><path class="cls-1" d="M10.22,13.73V12.27c0-9,0-.35,0-9.4a7.37,7.37,0,0,1,.07-1.49A1.7,1.7,0,0,1,12.08,0a1.69,1.69,0,0,1,1.78,1.4,7.37,7.37,0,0,1,.07,1.49c0,9,0,.36,0,9.41a2.92,2.92,0,0,0,.12,1.46c.51,0,.68-.43.95-.69C17,11.15,18.86,9.2,20.81,7.3a1.82,1.82,0,0,1,2.78-.11,1.79,1.79,0,0,1,0,2.68Q18.52,15,13.43,20A1.8,1.8,0,0,1,10.65,20q-5-5-10-10A1.79,1.79,0,0,1,.58,7.23a1.82,1.82,0,0,1,2.77.08c2.19,2.17,4.35,4.37,6.53,6.56Z"/></g></g></svg>