<svg xmlns="http://www.w3.org/2000/svg" viewBox="0 0 31.84 31.84"><defs><style>.cls-1{fill:#0b202b;}</style></defs><g id="Capa_2" data-name="Capa 2"><g id="Capa_1-2" data-name="Capa 1"><path class="cls-1" d="M22.92,31.84h-14a1.66,1.66,0,0,0-.31-.12A9.77,9.77,0,0,1,.54,25.09c-.27-.7-.3-1.46-.54-2.17v-14a2.91,2.91,0,0,0,.12-.39A9.79,9.79,0,0,1,6.35.68,23.59,23.59,0,0,1,8.91,0h14a2.08,2.08,0,0,0,.32.12,9.77,9.77,0,0,1,8,6.55,21.85,21.85,0,0,1,.57,2.39V22.92a1.06,1.06,0,0,0-.11.25,9.76,9.76,0,0,1-6.84,8.19A18.26,18.26,0,0,1,22.92,31.84ZM3,15.91H3C3,18,3,20.06,3,22.14a6.94,6.94,0,0,0,6.64,6.71q6.29.09,12.59,0a6.9,6.9,0,0,0,6.63-6.56Q29,16,28.84,9.63A6.91,6.91,0,0,0,22.07,3q-6.15-.06-12.3,0A7,7,0,0,0,3,9.9Z"/><path class="cls-1" d="M8,15.85a8,8,0,1,1,8,8A8,8,0,0,1,8,15.85Zm3,0a5.08,5.08,0,0,0,5,5.09,5.09,5.09,0,0,0,5-4.91,5,5,0,0,0-10-.18Z"/><path class="cls-1" d="M25.5,7.35a1,1,0,0,1-2.05.06,1,1,0,0,1,1-1.07A1,1,0,0,1,25.5,7.35Z"/></g></g></svg>