<svg xmlns="http://www.w3.org/2000/svg" viewBox="0 0 34.5 34.51"><defs><style>.cls-1{fill:#0b202b;stroke:#0b202b;stroke-miterlimit:10;stroke-width:0.75px;}</style></defs><g id="Capa_2" data-name="Capa 2"><g id="Capa_1-2" data-name="Capa 1"><g id="btcZfG.tif"><path class="cls-1" d="M17.24.38A16.88,16.88,0,1,1,.38,17.27,16.86,16.86,0,0,1,17.24.38Zm0,11.81c-1.44,0-2.88,0-4.31,0-.42,0-.51.15-.54.5-.06,1-.16,1.95-.21,2.92A40.09,40.09,0,0,0,12.46,22c0,.18,0,.35.3.35,3,0,6,0,9,0,.19,0,.28-.05.29-.25,0-.58.12-1.15.17-1.73a41.7,41.7,0,0,0-.15-7.82c0-.25-.11-.34-.38-.34C20.2,12.2,18.74,12.19,17.28,12.19ZM27.64,22.32h3.64c.18,0,.31,0,.38-.23a15.24,15.24,0,0,0,0-9.67.3.3,0,0,0-.34-.24H24c-.22,0-.3.07-.27.29.06.54.12,1.08.15,1.62a43.35,43.35,0,0,1-.14,7.81c0,.32,0,.43.37.43C25.29,22.3,26.47,22.32,27.64,22.32ZM6.85,12.19H3.29c-.26,0-.39.05-.48.33a15.23,15.23,0,0,0,0,9.51c.07.2.13.31.37.3,2.43,0,4.85,0,7.28,0,.3,0,.31-.13.29-.36-.06-.59-.12-1.18-.16-1.77a42.19,42.19,0,0,1,.16-7.62c0-.28,0-.41-.36-.4C9.22,12.2,8,12.19,6.85,12.19Zm10.4-1.68H21c.78,0,.79,0,.63-.79a18.76,18.76,0,0,0-2-5.72,4.71,4.71,0,0,0-1.41-1.63,1.62,1.62,0,0,0-1.86,0A3.7,3.7,0,0,0,15.2,3.5a18.14,18.14,0,0,0-2.4,6.76c-.06.32.14.24.3.24Zm0,13.49c-1.37,0-2.74,0-4.11,0-.29,0-.39.05-.33.37a23,23,0,0,0,1.52,5.09A6.46,6.46,0,0,0,16.13,32a1.66,1.66,0,0,0,2.12.09A3.92,3.92,0,0,0,19.33,31a18.56,18.56,0,0,0,2.38-6.73c.06-.31-.15-.24-.31-.24Zm3.35,8.09,1-.28a15.16,15.16,0,0,0,9.05-7.42c.21-.39.2-.39-.24-.39H23.86c-.25,0-.42,0-.45.33a5.8,5.8,0,0,1-.19,1A18.61,18.61,0,0,1,20.6,32.09Zm0-29.65a16,16,0,0,1,1,1.69,23.35,23.35,0,0,1,1.81,6c.05.3.15.38.45.38h6.61c.4,0,.35-.11.2-.39a15.2,15.2,0,0,0-7.75-7A12.23,12.23,0,0,0,20.61,2.44Zm-6.71,0A14.71,14.71,0,0,0,9.46,4.21a15.29,15.29,0,0,0-5.65,5.94c-.16.3-.11.36.22.36h6.65c.26,0,.38-.06.41-.34a9,9,0,0,1,.19-1A18.45,18.45,0,0,1,13.9,2.43Zm0,29.63c-.26-.44-.51-.82-.72-1.23a21.5,21.5,0,0,1-2.05-6.45C11,24.09,11,24,10.65,24Q7.35,24,4,24c-.38,0-.37.1-.21.39a15.18,15.18,0,0,0,7.35,6.8A13,13,0,0,0,13.87,32.06Z"/></g></g></g></svg>