<svg xmlns="http://www.w3.org/2000/svg" viewBox="0 0 61.06 11.23"><defs><style>.cls-1{fill:#0b202b;}</style></defs><g id="Capa_2" data-name="Capa 2"><g id="Capa_1-2" data-name="Capa 1"><g id="cosmic_full" data-name="cosmic full"><path id="Trazado_10335" data-name="Trazado 10335" class="cls-1" d="M17.72.22a5.65,5.65,0,0,0-4.56.72,7.83,7.83,0,0,0-1.74,1.8,6.85,6.85,0,0,0-.56.94c-.8,1.41-1.53,2.54-2.09,3.38A4.44,4.44,0,0,1,7.54,8.45,3.63,3.63,0,0,1,4.94,9a3.63,3.63,0,0,1-2.65-4.2,3.52,3.52,0,0,1,3-2.65A3.61,3.61,0,0,1,9,4.5l1.31-1.95A5.61,5.61,0,1,0,4.22,11a5.79,5.79,0,0,0,6.64-3.35A5.78,5.78,0,0,0,16.8,11.2a5.68,5.68,0,0,0,5-4.93A5.74,5.74,0,0,0,17.72.22ZM19.79,5.9a3.83,3.83,0,0,1-2.26,3,3.42,3.42,0,0,1-2.27.18A3.62,3.62,0,0,1,14,8.36a5.64,5.64,0,0,1-1.38-1.69,7.6,7.6,0,0,1-.49-1A7.83,7.83,0,0,1,13,4.05,5,5,0,0,1,14,2.9a3.19,3.19,0,0,1,3.51-.53A3.68,3.68,0,0,1,19.79,5.9Z"/><path id="Trazado_10336" data-name="Trazado 10336" class="cls-1" d="M27.86,4.38c-1.74-.38-2.19-.69-2.19-1.44s.56-1.14,1.51-1.14c1.38,0,1.73.71,1.86,1.38h2.32C31.2,1.61,30.07.09,27.24.09c-2.53,0-3.92,1.26-3.92,3.12,0,1.44.71,2.51,3.62,3.19,1.83.42,2.34.79,2.34,1.67s-.52,1.27-1.76,1.27a2,2,0,0,1-2.25-1.55H23c.24,2,1.68,3.29,4.4,3.29s4.29-1.35,4.29-3.29C31.64,6.27,31,5.13,27.86,4.38Z"/><path id="Trazado_10337" data-name="Trazado 10337" class="cls-1" d="M39,8.12h0C38.63,6.54,37.7,3,36.86.25H33.42V10.92h2.11V7.09c0-1.82-.05-4-.14-5.28h.08C35.93,4,37,8,37.82,10.92h2c1-3.34,2.09-6.89,2.59-9.08h.07c0,1.21-.07,3.26-.07,5.07v4h2.23V.25H41.29C40.39,3,39.23,6.72,39,8.12Z"/><rect id="Rectángulo_3215" data-name="Rectángulo 3215" class="cls-1" x="47.15" y="0.25" width="2.31" height="10.68"/><path id="Trazado_10338" data-name="Trazado 10338" class="cls-1" d="M56.55,9.26c-2.06,0-2.69-1.9-2.69-3.7s.72-3.67,2.63-3.67a2.1,2.1,0,0,1,2.26,1.66h2.31C60.8,1.75,59.42.09,56.57.09c-3.44,0-5.1,2.62-5.1,5.55s1.6,5.44,5,5.44c2.68,0,4.18-1.46,4.6-3.46H58.74A2.12,2.12,0,0,1,56.55,9.26Z"/></g></g></g></svg>