<svg xmlns="http://www.w3.org/2000/svg" viewBox="0 0 48.33 52.96"><defs><style>.cls-1{fill:#0b202b;}</style></defs><g id="Capa_2" data-name="Capa 2"><g id="Capa_1-2" data-name="Capa 1"><path class="cls-1" d="M38.17,15.42a1.34,1.34,0,0,1,.07-.18l.13-.39a1.41,1.41,0,0,0,.06-.22,3.57,3.57,0,0,0,.1-.35,1.85,1.85,0,0,0,0-.23,3.4,3.4,0,0,0,.07-.34c0-.08,0-.16,0-.23s0-.22,0-.33a1.93,1.93,0,0,0,0-.24c0-.1,0-.21,0-.32a1.79,1.79,0,0,1,0-.23c0-.11,0-.21,0-.32s0-.15,0-.23,0-.2-.05-.3a1.89,1.89,0,0,0,0-.23L38.45,11c0-.08-.05-.15-.07-.22a2.31,2.31,0,0,0-.1-.28c0-.08-.07-.14-.1-.21L38.06,10l-.12-.2-.15-.25-.13-.2-.18-.24-.15-.18-.2-.22L37,8.54a2.09,2.09,0,0,0-.22-.2l-.19-.16A1.84,1.84,0,0,1,36.32,8C33.9,7,30.3,5.47,30,5.37l0-.14L30,5.37c-2-.71-5.84-.44-8.6.12A8.28,8.28,0,0,0,16.7,8.18a7.31,7.31,0,0,0-.7,1,6.84,6.84,0,0,0-.79,2A9.66,9.66,0,0,1,16.83,11a9.18,9.18,0,0,1,3.57.72l10.52,4.42a7,7,0,0,1,4.32,4.43l2.46-4.19a3.72,3.72,0,0,0,.21-.39C38,15.8,38.09,15.61,38.17,15.42Z"/><path class="cls-1" d="M27.79,36.31a8.64,8.64,0,0,1-4.38,3.28A9.81,9.81,0,0,0,30.27,44a3.22,3.22,0,0,0,1,0,6.14,6.14,0,0,0,1.18-.29,14.22,14.22,0,0,0,3-1.5,12.31,12.31,0,0,0,3.86-4.06l0-.08,8.15-13.74a9.42,9.42,0,0,0,.88-4.12A11,11,0,0,0,41.11,10.2l-.28-.12-1.19-.55.08.18s0,.08.05.13.14.37.2.56l0,.09c0,.17.1.34.14.52l0,.12c0,.2.07.4.1.6,0,0,0,.08,0,.12a4.9,4.9,0,0,1,0,.54.37.37,0,0,1,0,.11c0,.21,0,.41,0,.62,0,0,0,.09,0,.13,0,.19,0,.38,0,.56s0,.07,0,.1c0,.21-.07.42-.11.63l0,.14c0,.2-.1.39-.16.59a.43.43,0,0,1,0,.05c-.07.21-.14.42-.22.63l-.06.15c-.09.21-.18.42-.28.62s-.17.33-.27.49l-3.94,6.7L28.09,35.84C28,36,27.9,36.15,27.79,36.31Z"/><path class="cls-1" d="M40,10.49l0-.09Z"/><path class="cls-1" d="M40.12,14.68l0-.14Z"/><path class="cls-1" d="M39.67,16.1l.06-.15Z"/><path class="cls-1" d="M40,15.32a.43.43,0,0,0,0-.05A.43.43,0,0,1,40,15.32Z"/><path class="cls-1" d="M40.26,13.91s0-.06,0-.1S40.26,13.88,40.26,13.91Z"/><path class="cls-1" d="M40.32,12.39a.37.37,0,0,1,0,.11A.37.37,0,0,0,40.32,12.39Z"/><path class="cls-1" d="M39.77,9.84c0-.05,0-.09-.05-.13A1.12,1.12,0,0,0,39.77,9.84Z"/><path class="cls-1" d="M40.32,13.25s0-.09,0-.13S40.32,13.21,40.32,13.25Z"/><path class="cls-1" d="M40.17,11.13l0-.12Z"/><path class="cls-1" d="M40.28,11.85s0-.08,0-.12S40.28,11.81,40.28,11.85Z"/><path class="cls-1" d="M40.33,12.5c0,.21,0,.41,0,.62C40.34,12.91,40.34,12.71,40.33,12.5Z"/><path class="cls-1" d="M40,10.4c-.06-.19-.13-.38-.2-.56C39.84,10,39.91,10.21,40,10.4Z"/><path class="cls-1" d="M40,15.27c.06-.2.11-.39.16-.59C40.07,14.88,40,15.07,40,15.27Z"/><path class="cls-1" d="M40.27,11.73c0-.2-.06-.4-.1-.6C40.21,11.33,40.24,11.53,40.27,11.73Z"/><path class="cls-1" d="M40.32,12.39a4.9,4.9,0,0,0,0-.54A4.9,4.9,0,0,1,40.32,12.39Z"/><path class="cls-1" d="M39.39,16.72c.1-.2.19-.41.28-.62C39.58,16.31,39.49,16.52,39.39,16.72Z"/><path class="cls-1" d="M40.15,14.54c0-.21.08-.42.11-.63C40.23,14.12,40.19,14.33,40.15,14.54Z"/><path class="cls-1" d="M39.73,16c.08-.21.15-.42.22-.63C39.88,15.53,39.81,15.74,39.73,16Z"/><path class="cls-1" d="M40.14,11c0-.18-.09-.35-.14-.52C40.05,10.66,40.1,10.83,40.14,11Z"/><path class="cls-1" d="M40.27,13.81c0-.18,0-.37,0-.56C40.31,13.44,40.29,13.63,40.27,13.81Z"/><path class="cls-1" d="M33,45.32a7.67,7.67,0,0,1-1.47.36h0a4.49,4.49,0,0,1-.64,0,4.54,4.54,0,0,1-.82-.07,11.56,11.56,0,0,1-8.53-6.16l-.07-.16-.3-.88L13.68,14.55a6.79,6.79,0,0,1-.28-2.37h0a8.64,8.64,0,0,1,1.19-3.87,8.3,8.3,0,0,1,.85-1.19,9.87,9.87,0,0,1,5.65-3.24,28.62,28.62,0,0,1,6.15-.58C23.11,1.77,17,.06,14.28,0h-.06a15.51,15.51,0,0,0-9,2.11S5,2.28,5,2.27A11.24,11.24,0,0,0,2.26,4.53,7.48,7.48,0,0,0,1,6.54H1c-.08.18-.15.36-.22.55l-.09.26A14.55,14.55,0,0,0,0,12.47c0,.19,0,.38,0,.57l.07.36a4.73,4.73,0,0,0,0,.84h0A73.14,73.14,0,0,0,3.34,27.41L8.36,42c.29.57.59,1.19.89,1.84l.24.53a16.11,16.11,0,0,0,2.92,4.46l.21.21a12.46,12.46,0,0,0,1.47,1.29,11.49,11.49,0,0,0,1.66,1,13.68,13.68,0,0,0,5.06,1.48c.51,0,1,.07,1.46.08l.05,0a13,13,0,0,0,10.51-4.61L35,45.49l1.38-1.92-.11.07A15,15,0,0,1,33,45.32Z"/></g></g></svg>