<svg xmlns="http://www.w3.org/2000/svg" viewBox="0 0 74.67 74.67"><defs><style>.cls-1{fill:#fcc632;}.cls-2{fill:#0b202b;}</style></defs><g id="Capa_2" data-name="Capa 2"><g id="Capa_1-2" data-name="Capa 1"><rect class="cls-1" width="74.67" height="74.67" rx="13.63"/><path class="cls-2" d="M51.12,26.43a1.34,1.34,0,0,0,.07-.18c.05-.13.1-.26.14-.38l.06-.22c0-.12.07-.24.09-.35s0-.16.05-.24l.06-.33,0-.24,0-.33v-.23c0-.11,0-.22,0-.33a2,2,0,0,0,0-.23c0-.1,0-.21,0-.31l0-.23c0-.1,0-.21-.05-.31l-.06-.22c0-.1,0-.2-.07-.3s0-.14-.08-.22-.06-.19-.1-.28l-.09-.21c0-.09-.08-.18-.13-.27l-.12-.21a1.65,1.65,0,0,0-.15-.25c0-.07-.09-.13-.13-.19a2.15,2.15,0,0,0-.18-.24,1.3,1.3,0,0,0-.15-.18c-.07-.08-.13-.16-.2-.23s-.12-.11-.17-.17l-.22-.2-.2-.15a1.84,1.84,0,0,0-.22-.17c-2.41-1-6-2.55-6.29-2.64l.06-.15-.07.14c-2-.71-5.83-.43-8.6.13A7.77,7.77,0,0,0,29,20.17a7,7,0,0,0-.79,2A9.85,9.85,0,0,1,29.78,22a9.23,9.23,0,0,1,3.58.72l10.51,4.42a7,7,0,0,1,4.32,4.44l2.46-4.2c.08-.13.15-.26.22-.39S51,26.62,51.12,26.43Z"/><path class="cls-2" d="M40.74,47.32a8.54,8.54,0,0,1-4.37,3.28,9.79,9.79,0,0,0,6.85,4.45,3.23,3.23,0,0,0,1,0,8.1,8.1,0,0,0,1.18-.29,14,14,0,0,0,3-1.5,12.44,12.44,0,0,0,3.87-4.06l0-.09L60.4,35.4a9.49,9.49,0,0,0,.88-4.12,11,11,0,0,0-7.21-10.07l-.28-.12-1.2-.55c0,.06,0,.13.08.19a.61.61,0,0,1,0,.12,5.37,5.37,0,0,1,.21.56s0,.06,0,.09.1.35.14.52l0,.13c0,.19.07.39.1.59a.49.49,0,0,1,0,.12c0,.18,0,.36.05.54v.11c0,.21,0,.42,0,.62a.66.66,0,0,1,0,.14,5.54,5.54,0,0,1-.05.56.28.28,0,0,1,0,.09,4.62,4.62,0,0,1-.11.63l0,.14c0,.2-.09.39-.15.59,0,0,0,0,0,.06a6.5,6.5,0,0,1-.22.62l-.06.15c-.09.21-.18.42-.28.62s-.17.33-.26.5l-3.95,6.69L41.05,46.85C41,47,40.85,47.17,40.74,47.32Z"/><path class="cls-2" d="M53,21.5s0-.06,0-.09S52.94,21.47,53,21.5Z"/><path class="cls-2" d="M53.07,25.69l0-.14Z"/><path class="cls-2" d="M52.62,27.11l.06-.15Z"/><path class="cls-2" d="M52.9,26.34s0,0,0-.06S52.91,26.32,52.9,26.34Z"/><path class="cls-2" d="M53.21,24.92a.28.28,0,0,0,0-.09A.28.28,0,0,1,53.21,24.92Z"/><path class="cls-2" d="M53.28,23.4v0Z"/><path class="cls-2" d="M52.72,20.85a.61.61,0,0,0,0-.12A.61.61,0,0,1,52.72,20.85Z"/><path class="cls-2" d="M53.27,24.27a.66.66,0,0,0,0-.14A.66.66,0,0,1,53.27,24.27Z"/><path class="cls-2" d="M53.12,22.15l0-.13Z"/><path class="cls-2" d="M53.23,22.86a.49.49,0,0,0,0-.12A.49.49,0,0,1,53.23,22.86Z"/><path class="cls-2" d="M53.28,23.51c0,.21,0,.42,0,.62C53.29,23.93,53.29,23.72,53.28,23.51Z"/><path class="cls-2" d="M52.93,21.41a5.37,5.37,0,0,0-.21-.56A5.37,5.37,0,0,1,52.93,21.41Z"/><path class="cls-2" d="M52.92,26.28c.06-.2.11-.39.15-.59C53,25.89,53,26.08,52.92,26.28Z"/><path class="cls-2" d="M53.22,22.74c0-.2-.06-.4-.1-.59C53.16,22.34,53.19,22.54,53.22,22.74Z"/><path class="cls-2" d="M53.28,23.4c0-.18,0-.36-.05-.54C53.25,23,53.27,23.22,53.28,23.4Z"/><path class="cls-2" d="M52.34,27.73c.1-.2.19-.41.28-.62C52.53,27.32,52.44,27.53,52.34,27.73Z"/><path class="cls-2" d="M53.1,25.55a4.62,4.62,0,0,0,.11-.63A4.62,4.62,0,0,1,53.1,25.55Z"/><path class="cls-2" d="M52.68,27a6.5,6.5,0,0,0,.22-.62A6.5,6.5,0,0,1,52.68,27Z"/><path class="cls-2" d="M53.09,22c0-.17-.09-.35-.14-.52C53,21.67,53.05,21.85,53.09,22Z"/><path class="cls-2" d="M53.22,24.83a5.54,5.54,0,0,0,.05-.56A5.54,5.54,0,0,1,53.22,24.83Z"/><path class="cls-2" d="M45.92,56.33a7.81,7.81,0,0,1-1.48.37h0a4.62,4.62,0,0,1-.65,0,5.79,5.79,0,0,1-.82-.07,11.59,11.59,0,0,1-8.53-6.17l-.07-.16-.3-.88-7.4-23.91a6.52,6.52,0,0,1-.29-2.36h0a8.65,8.65,0,0,1,1.19-3.88,10.77,10.77,0,0,1,.85-1.19,10,10,0,0,1,5.66-3.24,29.11,29.11,0,0,1,6.14-.58C36.06,12.78,29.94,11.08,27.24,11h-.07a15.59,15.59,0,0,0-9,2.11s-.22.16-.24.16a10.63,10.63,0,0,0-2.74,2.26,7.19,7.19,0,0,0-1.26,2v0c-.07.17-.15.35-.21.54s-.07.18-.1.27a14.49,14.49,0,0,0-.68,5.1c0,.19,0,.38,0,.57l.06.36a4.73,4.73,0,0,0,0,.84h0a73.78,73.78,0,0,0,3.21,13.17l5,14.62c.29.57.59,1.18.89,1.83l.24.53a16,16,0,0,0,2.91,4.46l.21.21A13.31,13.31,0,0,0,27,61.36a12.15,12.15,0,0,0,1.67,1,13.44,13.44,0,0,0,5.06,1.48c.51,0,1,.08,1.46.08l.05,0a13,13,0,0,0,10.5-4.61L48,56.5l1.38-1.91-.1.07A15.88,15.88,0,0,1,45.92,56.33Z"/></g></g></svg>