<svg xmlns="http://www.w3.org/2000/svg" viewBox="0 0 53.91 53.91"><defs><style>.cls-1{fill:#0b202b;}</style></defs><g id="Capa_2" data-name="Capa 2"><g id="Capa_1-2" data-name="Capa 1"><g id="ruaOPY.tif"><path class="cls-1" d="M28.53,53.91H25.37a2.88,2.88,0,0,0-.4-.09,24.61,24.61,0,0,1-9.45-2.47A26.66,26.66,0,0,1,.41,31.65c-.2-1-.23-2.08-.41-3.11V25.38a3.58,3.58,0,0,0,.09-.45A25,25,0,0,1,3.17,14.31C8.14,5.48,15.71.67,25.82.05a24.73,24.73,0,0,1,13.73,3.1C48.41,8.1,53.23,15.68,53.86,25.82a25,25,0,0,1-3.12,13.77A26.64,26.64,0,0,1,31.65,53.5C30.62,53.7,29.56,53.73,28.53,53.91ZM25.59,27V19.36c0-.26.07-.51-.37-.51-3.52,0-7,0-10.57,0-.26,0-.39.07-.42.34-.18,1.19-.4,2.38-.53,3.58a40.81,40.81,0,0,0,.5,11.83c.07.35.2.45.55.45q5.17,0,10.36,0c.39,0,.5-.11.49-.5C25.59,32,25.59,29.51,25.59,27Zm2.72,0v7.63c0,.28,0,.48.39.48q5.27,0,10.52,0c.28,0,.42-.07.46-.36.17-1.2.4-2.39.52-3.59a40.08,40.08,0,0,0-.5-11.77c-.07-.37-.19-.49-.56-.48q-5.16,0-10.31,0c-.41,0-.53.11-.53.53C28.32,21.9,28.31,24.42,28.31,27Zm-20.5,8.1h3c.76,0,.76,0,.62-.77a42.16,42.16,0,0,1-.63-8,41.5,41.5,0,0,1,.67-6.85c.08-.4,0-.58-.46-.57-2.14,0-4.28,0-6.42,0a.5.5,0,0,0-.59.41A23.57,23.57,0,0,0,4,34.65c.1.29.22.42.54.41C5.63,35,6.72,35.05,7.81,35.05ZM46.1,18.86H43.05c-.72,0-.72,0-.59.71a.43.43,0,0,1,0,.11,41.82,41.82,0,0,1,.62,7.9,39.65,39.65,0,0,1-.68,7c-.08.42,0,.53.46.52,2.16,0,4.32,0,6.47,0a.49.49,0,0,0,.55-.4,23.66,23.66,0,0,0,0-15.39.51.51,0,0,0-.6-.41C48.24,18.88,47.17,18.86,46.1,18.86Zm-20.51-16a2.19,2.19,0,0,0-.25,0,10.36,10.36,0,0,0-5.46,3.55,25.16,25.16,0,0,0-4.8,9.21c-.16.48,0,.53.42.53,3.18,0,6.35,0,9.53,0,.47,0,.58-.14.58-.59q0-6.1,0-12.21Zm2.72,6.68v6.15c0,.28,0,.5.39.5q4.93,0,9.89,0c.27,0,.37,0,.28-.36A25,25,0,0,0,34,6.39a10.6,10.6,0,0,0-5.18-3.45c-.4-.1-.5,0-.49.38C28.32,5.39,28.31,7.47,28.31,9.54Zm-2.72,34.9q0-3.13,0-6.26c0-.28,0-.45-.39-.45-3.29,0-6.59,0-9.89,0-.26,0-.39,0-.29.35A24.88,24.88,0,0,0,20,47.56,10.6,10.6,0,0,0,25.05,51c.42.12.56.08.56-.41C25.58,48.51,25.59,46.48,25.59,44.44Zm2.72,0q0,3.14,0,6.27c0,.33.06.41.41.32A10.45,10.45,0,0,0,34,47.47a24.91,24.91,0,0,0,4.84-9.36c.15-.49-.16-.37-.4-.37-3.21,0-6.42,0-9.63,0-.41,0-.54.1-.53.53C28.32,40.3,28.31,42.35,28.31,44.4Zm20.33-6.64-.58,0c-1.91,0-3.82,0-5.73,0a.64.64,0,0,0-.75.57,30,30,0,0,1-3.79,8.62c-.56.86-1.19,1.67-1.82,2.48A24.22,24.22,0,0,0,48.64,37.76ZM18,4.53C14.1,5.26,6,12.7,5.36,16.18c2.07,0,4.14,0,6.2,0,.49,0,.65-.16.78-.61A30,30,0,0,1,16.1,7,22,22,0,0,1,18,4.53Zm18,0a26.4,26.4,0,0,1,2,2.72,26.16,26.16,0,0,1,1.62,2.94,32.48,32.48,0,0,1,2,5.51c.06.22.08.47.44.47q3.14,0,6.26,0c.34,0,.29-.14.17-.35-.33-.58-.63-1.17-1-1.73A24.58,24.58,0,0,0,37.9,5.35,8.26,8.26,0,0,0,36,4.55ZM5.24,37.73A24.33,24.33,0,0,0,17.93,49.4a.78.78,0,0,0-.19-.32,23.52,23.52,0,0,1-3.34-5.2,32.81,32.81,0,0,1-2.1-5.65c-.06-.22-.05-.5-.42-.5C9.7,37.74,7.53,37.73,5.24,37.73Z"/></g></g></g></svg>